<svg width="1595" height="1317" viewBox="0 0 1595 1317" fill="none" xmlns="http://www.w3.org/2000/svg">
<mask id="mask0_1393_4892" style="mask-type:luminance" maskUnits="userSpaceOnUse" x="469" y="194" width="553" height="637">
<path d="M469.069 194.261H1021.46V830.171H469.069V194.261Z" fill="white"/>
</mask>
<g mask="url(#mask0_1393_4892)">
<g opacity="0.399994">
<path d="M772.08 194.262L1021.46 830.169L495.959 642.85L469.069 594.623L772.08 194.262Z" fill="white"/>
</g>
</g>
<path d="M1075.55 5.41905C1337.14 -27.3852 1530.77 90.4278 1582.52 313.176C1608.48 402.311 1593.68 504.319 1540.55 601.347C1475.62 719.921 1365.31 813.117 1251.11 846.474C1156.78 881.224 1055.17 877.386 963.969 835.568C852.822 784.609 763.851 682.468 719.874 555.328L717.556 548.033C686.667 440.971 696.674 335.479 746.508 242.96C803.891 136.417 911.786 53.9933 1050.32 10.889L1075.55 5.41905Z" fill="white"/>
<mask id="mask1_1393_4892" style="mask-type:luminance" maskUnits="userSpaceOnUse" x="787" y="208" width="207" height="265">
<path d="M787.775 208.483H993.607V472.221H787.775V208.483Z" fill="white"/>
</mask>
<g mask="url(#mask1_1393_4892)">
<g opacity="0.199997">
<path d="M927.297 381.418H852.319L927.297 288.359V381.418ZM968.742 422.867H972.509C984.186 422.867 993.605 413.824 993.605 402.141C993.605 390.838 984.186 381.418 972.509 381.418H968.742V229.201V228.075C968.742 227.318 968.365 226.941 968.365 226.191C968.365 225.061 968.365 224.68 967.988 223.93C967.988 223.554 967.608 222.8 967.608 222.42C967.231 221.293 967.231 220.916 966.854 220.159C966.481 219.782 966.104 219.032 966.104 218.655C965.351 217.521 964.97 217.145 964.594 216.772C964.22 216.395 963.844 215.641 963.467 215.261C963.09 214.884 962.71 214.511 961.956 213.757C961.956 213.381 961.206 213 960.829 213C960.829 212.623 960.449 212.623 960.449 212.623C959.695 212.247 959.319 211.874 958.569 211.497C958.192 211.12 957.435 210.743 956.685 209.986C956.308 209.986 955.551 209.613 955.174 209.613C954.424 209.236 953.294 209.236 952.914 208.859C952.164 208.859 951.787 208.859 951.033 208.483H948.773H948.015H947.266H944.628C944.251 208.859 943.494 208.859 943.117 208.859C941.991 209.236 941.237 209.236 940.857 209.613C940.103 209.613 939.73 209.986 939.353 210.743C938.219 210.743 937.843 211.12 937.093 211.497C936.716 211.874 935.959 212.247 935.582 212.623C935.209 213 934.832 213.381 933.698 213.757C933.321 214.511 932.945 214.884 932.571 215.261C932.195 215.641 932.195 216.018 931.818 216.018L792.411 389.334C785.253 398.373 786.379 411.187 795.802 418.346C799.57 421.733 804.088 422.867 808.609 422.867H808.986H809.366H927.297V451.498C927.297 463.178 936.335 472.221 948.015 472.221C959.695 472.221 968.742 463.178 968.742 451.498V422.867Z" fill="black"/>
</g>
</g>
<mask id="mask2_1393_4892" style="mask-type:luminance" maskUnits="userSpaceOnUse" x="1054" y="208" width="192" height="265">
<path d="M1054.78 208.483H1245.42V472.221H1054.78V208.483Z" fill="white"/>
</mask>
<g mask="url(#mask2_1393_4892)">
<g opacity="0.199997">
<path d="M1114.68 273.288C1125.98 257.46 1138.79 249.928 1150.47 250.301C1162.15 249.928 1174.59 257.46 1185.51 273.288C1196.06 289.485 1203.6 313.222 1203.6 340.35C1203.6 367.101 1196.06 391.214 1185.51 407.039C1174.59 423.24 1162.15 430.402 1150.47 430.402C1138.79 430.402 1125.98 423.24 1114.68 407.039C1104.13 391.214 1096.59 367.101 1096.59 340.35C1096.59 313.222 1104.13 289.485 1114.68 273.288ZM1150.47 472.221C1179.49 472.221 1204.35 454.136 1220.18 430.402C1236.37 406.289 1245.42 374.64 1245.42 340.35C1245.42 305.687 1236.37 274.418 1220.18 250.301C1204.35 226.187 1179.49 208.483 1150.47 208.483C1120.71 208.483 1096.22 226.187 1080.39 250.301C1063.82 274.418 1055.15 305.687 1054.77 340.35C1055.15 374.64 1063.82 406.289 1080.39 430.402C1096.22 454.136 1120.71 472.221 1150.47 472.221Z" fill="black"/>
</g>
</g>
<mask id="mask3_1393_4892" style="mask-type:luminance" maskUnits="userSpaceOnUse" x="1290" y="208" width="207" height="265">
<path d="M1290.56 208.483H1496.4V472.221H1290.56V208.483Z" fill="white"/>
</mask>
<g mask="url(#mask3_1393_4892)">
<g opacity="0.199997">
<path d="M1430.08 381.418H1355.1L1430.08 288.359V381.418ZM1475.3 381.418H1471.53V229.201V228.075C1471.53 227.318 1471.15 226.941 1471.15 226.191C1471.15 225.061 1471.15 224.68 1470.77 223.93C1470.77 223.554 1470.4 222.8 1470.4 222.42C1470.02 221.293 1470.02 220.916 1469.65 220.159C1469.27 219.782 1468.89 219.032 1468.89 218.655C1468.14 217.521 1467.76 217.145 1467.39 216.772C1467.01 216.395 1466.63 215.641 1466.25 215.261C1465.88 214.884 1465.5 214.511 1464.75 213.757C1464.75 213.381 1463.99 213 1463.62 213C1463.62 212.623 1463.24 212.623 1463.24 212.623C1462.49 212.247 1462.11 211.874 1461.36 211.497C1460.98 211.12 1460.23 210.743 1459.47 209.986C1459.09 209.986 1458.34 209.613 1457.96 209.613C1457.21 209.236 1456.08 209.236 1455.7 208.859C1454.95 208.859 1454.57 208.859 1453.82 208.483H1451.56H1450.81H1450.06H1447.41C1447.04 208.859 1446.28 208.859 1445.91 208.859C1444.78 209.236 1444.02 209.236 1443.65 209.613C1442.9 209.613 1442.52 209.986 1442.14 210.743C1441.01 210.743 1440.64 211.12 1439.88 211.497C1439.5 211.874 1438.75 212.247 1438.38 212.623C1438 213 1437.62 213.381 1436.49 213.757C1436.12 214.511 1435.74 214.884 1435.36 215.261C1434.98 215.641 1434.98 216.018 1434.6 216.018L1295.2 389.334C1288.04 398.373 1289.17 411.187 1298.59 418.346C1302.36 421.733 1306.88 422.867 1311.4 422.867H1311.78H1312.15H1430.08V451.498C1430.08 463.178 1439.13 472.221 1450.81 472.221C1462.49 472.221 1471.53 463.178 1471.53 451.498V422.867H1475.3C1486.98 422.867 1496.4 413.824 1496.4 402.141C1496.4 390.838 1486.98 381.418 1475.3 381.418Z" fill="black"/>
</g>
</g>
<path d="M911.522 280.782L836.544 373.841H911.522V280.782ZM977.831 394.567C977.831 406.247 968.411 415.29 956.735 415.29H952.967V443.921C952.967 455.601 943.921 464.644 932.241 464.644C920.561 464.644 911.522 455.601 911.522 443.921V415.29H793.592H793.211H792.835C788.313 415.29 783.796 414.156 780.028 410.769C770.609 403.61 769.478 390.796 776.637 381.757L916.043 208.441C916.42 208.441 916.42 208.064 916.797 207.684C917.174 207.307 917.547 206.934 917.923 206.18C919.057 205.803 919.434 205.423 919.811 205.05C920.184 204.673 920.941 204.296 921.318 203.92C922.072 203.543 922.445 203.166 923.579 203.166C923.956 202.413 924.332 202.036 925.082 202.036C925.463 201.659 926.216 201.659 927.343 201.282C927.72 201.282 928.477 201.282 928.854 200.905H931.491H932.241H932.998H935.259C936.012 201.282 936.389 201.282 937.139 201.282C937.519 201.659 938.65 201.659 939.4 202.036C939.776 202.036 940.534 202.413 940.91 202.413C941.66 203.166 942.417 203.543 942.794 203.92C943.548 204.296 943.921 204.673 944.674 205.05C944.674 205.05 945.055 205.05 945.055 205.423C945.432 205.423 946.185 205.803 946.185 206.18C946.935 206.934 947.316 207.307 947.692 207.684C948.069 208.064 948.446 208.818 948.819 209.194C949.196 209.571 949.576 209.944 950.33 211.078C950.33 211.455 950.706 212.209 951.08 212.582C951.456 213.339 951.456 213.716 951.833 214.842C951.833 215.223 952.214 215.976 952.214 216.353C952.59 217.103 952.59 217.483 952.59 218.614C952.59 219.367 952.967 219.74 952.967 220.498V221.628V373.841H956.735C968.411 373.841 977.831 383.26 977.831 394.567Z" fill="#A24C45"/>
<path d="M1187.83 332.774C1187.83 305.646 1180.29 281.909 1169.74 265.712C1158.81 249.887 1146.38 242.352 1134.7 242.728C1123.02 242.352 1110.21 249.887 1098.91 265.712C1088.36 281.909 1080.82 305.646 1080.82 332.774C1080.82 359.525 1088.36 383.638 1098.91 399.463C1110.21 415.668 1123.02 422.826 1134.7 422.826C1146.38 422.826 1158.81 415.668 1169.74 399.463C1180.29 383.638 1187.83 359.525 1187.83 332.774ZM1039 332.774C1039.38 298.114 1048.04 266.842 1064.62 242.728C1080.45 218.615 1104.93 200.906 1134.7 200.906C1163.71 200.906 1188.58 218.615 1204.4 242.728C1220.6 266.842 1229.64 298.114 1229.64 332.774C1229.64 367.064 1220.6 398.713 1204.4 422.826C1188.58 446.559 1163.71 464.645 1134.7 464.645C1104.93 464.645 1080.45 446.559 1064.62 422.826C1048.04 398.713 1039.38 367.064 1039 332.774Z" fill="#A24C45"/>
<path d="M1414.31 280.782L1339.33 373.841H1414.31V280.782ZM1480.62 394.567C1480.62 406.247 1471.2 415.29 1459.52 415.29H1455.75V443.921C1455.75 455.601 1446.71 464.644 1435.03 464.644C1423.35 464.644 1414.31 455.601 1414.31 443.921V415.29H1296.38H1296H1295.62C1291.1 415.29 1286.58 414.156 1282.82 410.769C1273.4 403.61 1272.26 390.796 1279.42 381.757L1418.83 208.441C1419.21 208.441 1419.21 208.064 1419.58 207.684C1419.96 207.307 1420.34 206.934 1420.71 206.18C1421.84 205.804 1422.22 205.423 1422.6 205.05C1422.98 204.673 1423.73 204.296 1424.1 203.92C1424.86 203.543 1425.24 203.166 1426.37 203.166C1426.74 202.413 1427.12 202.036 1427.87 202.036C1428.25 201.659 1429 201.659 1430.14 201.282C1430.51 201.282 1431.26 201.282 1431.64 200.905H1434.28H1435.03H1435.78H1438.05C1438.8 201.282 1439.18 201.282 1439.93 201.282C1440.31 201.659 1441.44 201.659 1442.19 202.036C1442.57 202.036 1443.32 202.413 1443.7 202.413C1444.45 203.166 1445.2 203.543 1445.58 203.92C1446.34 204.296 1446.71 204.673 1447.46 205.05C1447.46 205.05 1447.84 205.05 1447.84 205.423C1448.22 205.423 1448.98 205.804 1448.98 206.18C1449.73 206.934 1450.1 207.307 1450.48 207.684C1450.86 208.064 1451.24 208.818 1451.61 209.194C1451.99 209.571 1452.36 209.944 1453.12 211.078C1453.12 211.455 1453.49 212.209 1453.87 212.582C1454.25 213.339 1454.25 213.716 1454.62 214.842C1454.62 215.223 1455 215.976 1455 216.353C1455.38 217.103 1455.38 217.483 1455.38 218.614C1455.38 219.367 1455.75 219.74 1455.75 220.498V221.628V373.841H1459.52C1471.2 373.841 1480.62 383.26 1480.62 394.567Z" fill="#A24C45"/>
<mask id="mask4_1393_4892" style="mask-type:luminance" maskUnits="userSpaceOnUse" x="925" y="544" width="474" height="146">
<path d="M925.515 544.873H1399V689.525H925.515V544.873Z" fill="white"/>
</mask>
<g mask="url(#mask4_1393_4892)">
<g opacity="0.199997">
<path d="M1325.03 544.875H999.485C958.634 544.875 925.515 570.335 925.515 601.742V632.656C925.515 664.064 958.634 689.523 999.485 689.523H1325.03C1365.88 689.523 1399 664.064 1399 632.656V601.742C1399 570.335 1365.88 544.875 1325.03 544.875Z" fill="black"/>
</g>
</g>
<path d="M1378.48 625.08C1378.48 656.488 1345.37 681.947 1304.52 681.947H978.966C938.119 681.947 905 656.488 905 625.08V594.166C905 562.759 938.119 537.299 978.966 537.299H1304.52C1345.37 537.299 1378.48 562.759 1378.48 594.166V625.08Z" fill="#A24C45"/>
<path d="M991.769 581C993.049 581 994.089 581.427 994.889 582.28C995.689 583.133 996.089 584.2 996.089 585.48V632.12C996.089 633.507 995.609 634.68 994.649 635.64C993.742 636.547 992.596 637 991.209 637C990.516 637 989.796 636.893 989.049 636.68C988.356 636.413 987.822 636.067 987.449 635.64L956.009 595.72L958.089 594.44V632.52C958.089 633.8 957.662 634.867 956.809 635.72C956.009 636.573 954.942 637 953.609 637C952.329 637 951.289 636.573 950.489 635.72C949.689 634.867 949.289 633.8 949.289 632.52V585.88C949.289 584.493 949.742 583.347 950.649 582.44C951.609 581.48 952.782 581 954.169 581C954.916 581 955.689 581.16 956.489 581.48C957.289 581.747 957.876 582.173 958.249 582.76L988.729 621.64L987.369 622.6V585.48C987.369 584.2 987.769 583.133 988.569 582.28C989.369 581.427 990.436 581 991.769 581ZM1048.84 615.64C1048.84 620.013 1047.85 623.88 1045.88 627.24C1043.96 630.547 1041.34 633.133 1038.04 635C1034.78 636.867 1031.13 637.8 1027.08 637.8C1023.02 637.8 1019.34 636.867 1016.04 635C1012.78 633.133 1010.17 630.547 1008.2 627.24C1006.28 623.88 1005.32 620.013 1005.32 615.64C1005.32 611.267 1006.28 607.427 1008.2 604.12C1010.17 600.76 1012.78 598.147 1016.04 596.28C1019.34 594.36 1023.02 593.4 1027.08 593.4C1031.13 593.4 1034.78 594.36 1038.04 596.28C1041.34 598.147 1043.96 600.76 1045.88 604.12C1047.85 607.427 1048.84 611.267 1048.84 615.64ZM1039.24 615.64C1039.24 612.92 1038.68 610.573 1037.56 608.6C1036.49 606.573 1035.02 605 1033.16 603.88C1031.34 602.76 1029.32 602.2 1027.08 602.2C1024.84 602.2 1022.78 602.76 1020.92 603.88C1019.1 605 1017.64 606.573 1016.52 608.6C1015.45 610.573 1014.92 612.92 1014.92 615.64C1014.92 618.307 1015.45 620.653 1016.52 622.68C1017.64 624.653 1019.1 626.2 1020.92 627.32C1022.78 628.44 1024.84 629 1027.08 629C1029.32 629 1031.34 628.44 1033.16 627.32C1035.02 626.2 1036.49 624.653 1037.56 622.68C1038.68 620.653 1039.24 618.307 1039.24 615.64ZM1057.72 595H1076.68C1077.96 595 1079.03 595.427 1079.88 596.28C1080.73 597.133 1081.16 598.2 1081.16 599.48C1081.16 600.707 1080.73 601.747 1079.88 602.6C1079.03 603.4 1077.96 603.8 1076.68 603.8H1057.72C1056.44 603.8 1055.37 603.373 1054.52 602.52C1053.67 601.667 1053.24 600.6 1053.24 599.32C1053.24 598.093 1053.67 597.08 1054.52 596.28C1055.37 595.427 1056.44 595 1057.72 595ZM1066.28 585C1067.67 585 1068.79 585.48 1069.64 586.44C1070.55 587.347 1071 588.493 1071 589.88V625.48C1071 626.227 1071.13 626.84 1071.4 627.32C1071.72 627.8 1072.12 628.147 1072.6 628.36C1073.13 628.573 1073.69 628.68 1074.28 628.68C1074.92 628.68 1075.51 628.573 1076.04 628.36C1076.57 628.093 1077.19 627.96 1077.88 627.96C1078.63 627.96 1079.29 628.307 1079.88 629C1080.52 629.693 1080.84 630.653 1080.84 631.88C1080.84 633.373 1080.01 634.6 1078.36 635.56C1076.76 636.52 1075.03 637 1073.16 637C1072.04 637 1070.79 636.92 1069.4 636.76C1068.07 636.547 1066.79 636.093 1065.56 635.4C1064.39 634.653 1063.4 633.533 1062.6 632.04C1061.8 630.547 1061.4 628.493 1061.4 625.88V589.88C1061.4 588.493 1061.85 587.347 1062.76 586.44C1063.72 585.48 1064.89 585 1066.28 585ZM1118.24 637C1116.74 637 1115.52 636.547 1114.56 635.64C1113.65 634.68 1113.2 633.507 1113.2 632.12V585.88C1113.2 584.493 1113.65 583.347 1114.56 582.44C1115.52 581.48 1116.69 581 1118.08 581H1144.08C1145.46 581 1146.61 581.453 1147.52 582.36C1148.48 583.213 1148.96 584.333 1148.96 585.72C1148.96 586.893 1148.48 587.933 1147.52 588.84C1146.61 589.747 1145.46 590.2 1144.08 590.2H1122.48L1123.2 589.24V605.32L1122.64 604.28H1140.48C1141.86 604.28 1143.01 604.733 1143.92 605.64C1144.88 606.493 1145.36 607.613 1145.36 609C1145.36 610.173 1144.88 611.213 1143.92 612.12C1143.01 613.027 1141.86 613.48 1140.48 613.48H1122.48L1123.2 612.76V632.12C1123.2 633.507 1122.69 634.68 1121.68 635.64C1120.72 636.547 1119.57 637 1118.24 637ZM1197.67 615.64C1197.67 620.013 1196.68 623.88 1194.71 627.24C1192.79 630.547 1190.17 633.133 1186.87 635C1183.61 636.867 1179.96 637.8 1175.91 637.8C1171.85 637.8 1168.17 636.867 1164.87 635C1161.61 633.133 1159 630.547 1157.03 627.24C1155.11 623.88 1154.15 620.013 1154.15 615.64C1154.15 611.267 1155.11 607.427 1157.03 604.12C1159 600.76 1161.61 598.147 1164.87 596.28C1168.17 594.36 1171.85 593.4 1175.91 593.4C1179.96 593.4 1183.61 594.36 1186.87 596.28C1190.17 598.147 1192.79 600.76 1194.71 604.12C1196.68 607.427 1197.67 611.267 1197.67 615.64ZM1188.07 615.64C1188.07 612.92 1187.51 610.573 1186.39 608.6C1185.32 606.573 1183.85 605 1181.99 603.88C1180.17 602.76 1178.15 602.2 1175.91 602.2C1173.67 602.2 1171.61 602.76 1169.75 603.88C1167.93 605 1166.47 606.573 1165.35 608.6C1164.28 610.573 1163.75 612.92 1163.75 615.64C1163.75 618.307 1164.28 620.653 1165.35 622.68C1166.47 624.653 1167.93 626.2 1169.75 627.32C1171.61 628.44 1173.67 629 1175.91 629C1178.15 629 1180.17 628.44 1181.99 627.32C1183.85 626.2 1185.32 624.653 1186.39 622.68C1187.51 620.653 1188.07 618.307 1188.07 615.64ZM1237.83 594.2C1239.21 594.2 1240.36 594.68 1241.27 595.64C1242.17 596.547 1242.63 597.693 1242.63 599.08V619.4C1242.63 625.053 1241.05 629.533 1237.91 632.84C1234.76 636.147 1230.23 637.8 1224.31 637.8C1218.39 637.8 1213.85 636.147 1210.71 632.84C1207.61 629.533 1206.07 625.053 1206.07 619.4V599.08C1206.07 597.693 1206.52 596.547 1207.43 595.64C1208.33 594.68 1209.48 594.2 1210.87 594.2C1212.25 594.2 1213.4 594.68 1214.31 595.64C1215.21 596.547 1215.67 597.693 1215.67 599.08V619.4C1215.67 622.653 1216.39 625.08 1217.83 626.68C1219.27 628.227 1221.43 629 1224.31 629C1227.24 629 1229.43 628.227 1230.87 626.68C1232.31 625.08 1233.03 622.653 1233.03 619.4V599.08C1233.03 597.693 1233.48 596.547 1234.39 595.64C1235.29 594.68 1236.44 594.2 1237.83 594.2ZM1275.9 593.4C1279.85 593.4 1282.83 594.227 1284.86 595.88C1286.94 597.533 1288.35 599.747 1289.1 602.52C1289.9 605.24 1290.3 608.28 1290.3 611.64V632.12C1290.3 633.507 1289.85 634.68 1288.94 635.64C1288.03 636.547 1286.89 637 1285.5 637C1284.11 637 1282.97 636.547 1282.06 635.64C1281.15 634.68 1280.7 633.507 1280.7 632.12V611.64C1280.7 609.88 1280.46 608.307 1279.98 606.92C1279.55 605.48 1278.75 604.333 1277.58 603.48C1276.41 602.627 1274.73 602.2 1272.54 602.2C1270.41 602.2 1268.59 602.627 1267.1 603.48C1265.66 604.333 1264.54 605.48 1263.74 606.92C1262.99 608.307 1262.62 609.88 1262.62 611.64V632.12C1262.62 633.507 1262.17 634.68 1261.26 635.64C1260.35 636.547 1259.21 637 1257.82 637C1256.43 637 1255.29 636.547 1254.38 635.64C1253.47 634.68 1253.02 633.507 1253.02 632.12V599.08C1253.02 597.693 1253.47 596.547 1254.38 595.64C1255.29 594.68 1256.43 594.2 1257.82 594.2C1259.21 594.2 1260.35 594.68 1261.26 595.64C1262.17 596.547 1262.62 597.693 1262.62 599.08V602.52L1261.42 602.28C1261.9 601.373 1262.59 600.413 1263.5 599.4C1264.41 598.333 1265.47 597.347 1266.7 596.44C1267.93 595.533 1269.31 594.813 1270.86 594.28C1272.41 593.693 1274.09 593.4 1275.9 593.4ZM1335.72 577.8C1337.1 577.8 1338.25 578.253 1339.16 579.16C1340.06 580.067 1340.52 581.24 1340.52 582.68V632.12C1340.52 633.507 1340.06 634.68 1339.16 635.64C1338.25 636.547 1337.1 637 1335.72 637C1334.33 637 1333.18 636.547 1332.28 635.64C1331.37 634.68 1330.92 633.507 1330.92 632.12V628.2L1332.68 628.92C1332.68 629.613 1332.3 630.467 1331.56 631.48C1330.81 632.44 1329.8 633.4 1328.52 634.36C1327.24 635.32 1325.72 636.147 1323.96 636.84C1322.25 637.48 1320.38 637.8 1318.36 637.8C1314.68 637.8 1311.34 636.867 1308.36 635C1305.37 633.08 1303 630.467 1301.24 627.16C1299.53 623.8 1298.68 619.96 1298.68 615.64C1298.68 611.267 1299.53 607.427 1301.24 604.12C1303 600.76 1305.34 598.147 1308.28 596.28C1311.21 594.36 1314.46 593.4 1318.04 593.4C1320.33 593.4 1322.44 593.747 1324.36 594.44C1326.28 595.133 1327.93 596.013 1329.32 597.08C1330.76 598.147 1331.85 599.24 1332.6 600.36C1333.4 601.427 1333.8 602.333 1333.8 603.08L1330.92 604.12V582.68C1330.92 581.293 1331.37 580.147 1332.28 579.24C1333.18 578.28 1334.33 577.8 1335.72 577.8ZM1319.56 629C1321.9 629 1323.96 628.413 1325.72 627.24C1327.48 626.067 1328.84 624.467 1329.8 622.44C1330.81 620.413 1331.32 618.147 1331.32 615.64C1331.32 613.08 1330.81 610.787 1329.8 608.76C1328.84 606.733 1327.48 605.133 1325.72 603.96C1323.96 602.787 1321.9 602.2 1319.56 602.2C1317.26 602.2 1315.24 602.787 1313.48 603.96C1311.72 605.133 1310.33 606.733 1309.32 608.76C1308.36 610.787 1307.88 613.08 1307.88 615.64C1307.88 618.147 1308.36 620.413 1309.32 622.44C1310.33 624.467 1311.72 626.067 1313.48 627.24C1315.24 628.413 1317.26 629 1319.56 629Z" fill="#FBF1F1"/>
<mask id="mask5_1393_4892" style="mask-type:luminance" maskUnits="userSpaceOnUse" x="0" y="1231" width="601" height="86">
<path d="M0 1231.57H600.578V1316.41H0V1231.57Z" fill="white"/>
</mask>
<g mask="url(#mask5_1393_4892)">
<g opacity="0.100006">
<path d="M600.578 1273.99C600.578 1297.42 466.135 1316.41 300.289 1316.41C134.446 1316.41 0 1297.42 0 1273.99C0 1250.56 134.446 1231.57 300.289 1231.57C466.135 1231.57 600.578 1250.56 600.578 1273.99Z" fill="black"/>
</g>
</g>
<path d="M453.09 629.334L366.798 648.341L359.014 613.008L430.078 597.356L445.306 594.001L453.09 629.334Z" fill="#252B2C"/>
<path d="M469.071 625.813L382.778 644.82L374.994 609.488L446.058 593.835L461.286 590.481L469.071 625.813Z" fill="#343E40"/>
<path d="M481.161 566.603L497.955 642.851L453.089 629.334L445.309 594.002L481.161 566.603Z" fill="#252B2C"/>
<path d="M70.7725 537.954L199.124 485.477L141.858 392.776L161.637 364.273L259.668 497.673L133.851 584.151L70.7725 537.954Z" fill="#813C37"/>
<path d="M337.011 1243.31L306.533 1253.73L281.446 1180.39L311.925 1169.97L337.011 1243.31Z" fill="#813C37"/>
<path d="M301.645 1239.44C301.645 1239.44 398.797 1206.21 408.572 1234.79L311.419 1268.02L301.645 1239.44Z" fill="#BBBBBB"/>
<path d="M105.603 1258.61H73.3906V1181.1H105.603V1258.61Z" fill="#813C37"/>
<path d="M296.87 1229.27L333.109 1213.16L186.138 798.459H53.2578L71.3795 1229.27H116.486L128.649 892.078H141.818L296.87 1229.27Z" fill="#343E40"/>
<path d="M164.503 335.235C117.344 291.369 82.2715 354.733 82.2715 354.733V377.2C80.5522 376.516 78.7123 376.125 76.7882 376.125C67.7054 376.125 60.3418 384.399 60.3418 394.605C60.3418 404.811 67.7054 413.085 76.7882 413.085C78.7123 413.085 80.5522 412.694 82.2715 412.01V520.952L127.543 507.458V463.591H169.043V443.348H143.576C148.291 423.101 172.814 426.473 172.814 426.473V407.916L199.225 406.23L164.503 335.235Z" fill="#DFAEAE"/>
<path d="M82.2714 383.982V404.913H90.4945V363.797C90.4945 363.797 118.818 363.797 121.558 332.733C121.558 332.733 194.656 360.143 193.742 278.825C193.742 278.825 173.641 298.926 159.02 291.618C144.402 284.305 106.026 264.204 87.7547 291.618C87.7547 291.618 63.996 285.783 60.3416 319.766C56.6873 353.749 82.2714 383.982 82.2714 383.982Z" fill="#53473D"/>
<path d="M151.94 365.626C151.94 372.185 153.473 377.504 155.368 377.504C157.259 377.504 158.792 372.185 158.792 365.626C158.792 359.068 157.259 353.749 155.368 353.749C153.473 353.749 151.94 359.068 151.94 365.626Z" fill="#0B181B"/>
<path d="M150.674 480.687V511.674C150.674 511.674 166.225 516.291 188.074 544.797C219.17 585.375 258.944 630.79 258.944 630.79L368.172 620.394L374.731 663.024L238.068 682.638L184.866 634.663L199.318 812.698H41.1758L66.2623 520.223L61.9861 499.921L150.674 480.687Z" fill="#A24C45"/>
<path d="M73.3916 1242.3C73.3916 1242.3 181.134 1242.3 181.134 1273.99H73.3916V1242.3Z" fill="#BBBBBB"/>
<path d="M367.861 621.402L390.332 598.924L415.404 592.467L411.512 601.652L401.478 603.862L428.485 621.402L403.607 650.19L371.94 647.911L367.861 621.402Z" fill="#DFAEAE"/>
<mask id="mask6_1393_4892" style="mask-type:luminance" maskUnits="userSpaceOnUse" x="41" y="278" width="368" height="997">
<path d="M41 278H408.395V1274.35H41V278Z" fill="white"/>
</mask>
<g mask="url(#mask6_1393_4892)">
<g opacity="0.199997">
<path d="M332.455 1230.86L327.37 1216L332.93 1213.52L286.774 1083.28C179.43 996.78 105.428 814.187 105.428 602.908C105.428 487.582 127.479 380.798 164.966 293.522C162.866 293.416 160.807 292.958 158.842 291.974C144.225 284.666 105.849 264.565 87.5773 291.974C87.5773 291.974 63.8186 286.144 60.1643 320.126C57.6366 343.651 69.1117 365.365 76.4168 376.507C67.4254 376.628 60.1643 384.833 60.1643 394.965C60.1643 405.171 67.5278 413.442 76.6106 413.442C78.5347 413.442 80.3784 413.051 82.094 412.37V495.882L61.8104 500.279L66.0829 520.581L41 813.06H53.6786L71.2005 1229.63H73.2123V1242.66V1258.97V1274.35H180.959C180.959 1254.14 137.176 1246.83 105.428 1244.18V1229.63H116.307L128.47 892.439H141.639L296.691 1229.63L297.817 1229.13L301.468 1239.8L303.549 1245.89L306.355 1254.09L311.242 1268.38L408.395 1235.15C402.268 1217.23 361.799 1223.61 332.455 1230.86Z" fill="black"/>
</g>
</g>
</svg>
