<svg width="234" height="176" viewBox="0 0 234 176" fill="none" xmlns="http://www.w3.org/2000/svg">
<path d="M105.097 33.8489C105.063 33.8489 105.028 33.8468 104.994 33.8403C104.664 33.7843 104.442 33.4696 104.498 33.1421C104.502 33.1227 104.582 32.6572 104.785 31.8986C104.871 31.5775 105.203 31.3836 105.526 31.4698C105.849 31.556 106.041 31.8879 105.955 32.2111C105.769 32.9093 105.694 33.3425 105.692 33.3468C105.642 33.6399 105.386 33.8489 105.097 33.8489ZM106.338 29.7867C106.263 29.7867 106.185 29.7738 106.11 29.7414C105.8 29.6165 105.653 29.263 105.778 28.9527C105.935 28.5691 106.106 28.1855 106.28 27.8148C106.422 27.511 106.782 27.3817 107.086 27.5239C107.388 27.6661 107.517 28.0282 107.375 28.3299C107.209 28.6812 107.049 29.0454 106.901 29.4117C106.804 29.6466 106.578 29.7867 106.338 29.7867ZM108.306 26.0369C108.192 26.0369 108.075 26.0025 107.972 25.9357C107.694 25.7503 107.618 25.3753 107.802 25.0974C108.034 24.7461 108.278 24.4034 108.526 24.0759C108.728 23.8108 109.11 23.7591 109.375 23.9616C109.642 24.1642 109.694 24.5435 109.491 24.8107C109.258 25.1146 109.03 25.4357 108.812 25.7654C108.696 25.94 108.502 26.0369 108.306 26.0369ZM111.051 22.8195C110.885 22.8195 110.719 22.7527 110.601 22.6191C110.377 22.3712 110.396 21.9876 110.646 21.7657C110.959 21.4834 111.286 21.2118 111.618 20.9618C111.883 20.7593 112.262 20.811 112.465 21.0782C112.668 21.3433 112.616 21.7247 112.349 21.9251C112.045 22.1557 111.745 22.4057 111.457 22.6643C111.34 22.7678 111.196 22.8195 111.051 22.8195ZM114.575 20.5028C114.344 20.5028 114.124 20.3714 114.023 20.1472C113.885 19.8434 114.019 19.4835 114.325 19.3456C114.704 19.1732 115.101 19.0159 115.497 18.8779C115.812 18.768 116.159 18.934 116.269 19.2486C116.379 19.5654 116.213 19.9102 115.896 20.0201C115.534 20.1472 115.172 20.2895 114.825 20.4489C114.743 20.4856 114.659 20.5028 114.575 20.5028ZM124.061 19.5632C124.027 19.5632 123.99 19.5611 123.956 19.5546C123.563 19.4857 123.171 19.4275 122.792 19.3844C122.458 19.3434 122.221 19.0439 122.26 18.712C122.301 18.3801 122.6 18.1431 122.932 18.1819C123.335 18.2293 123.751 18.2896 124.165 18.3607C124.494 18.4189 124.714 18.7335 124.656 19.0611C124.604 19.3563 124.35 19.5632 124.061 19.5632ZM118.635 19.3736C118.333 19.3736 118.072 19.1495 118.034 18.8435C117.993 18.5116 118.23 18.2099 118.562 18.1689C118.969 18.1172 119.391 18.0827 119.812 18.0612C120.146 18.0461 120.43 18.3047 120.445 18.6387C120.46 18.9728 120.202 19.2551 119.868 19.2723C119.478 19.2895 119.087 19.3219 118.71 19.3693C118.684 19.3736 118.659 19.3736 118.635 19.3736Z" fill="#B8C8DE"/>
<path d="M98.1751 33.6139C97.8971 33.6009 97.6536 33.3941 97.6061 33.1074C97.5436 32.7389 97.4618 32.3575 97.3626 31.9782C97.2786 31.6549 97.4725 31.3252 97.7958 31.239C98.119 31.155 98.4509 31.3489 98.535 31.6722C98.6427 32.0881 98.7332 32.504 98.8 32.9092C98.8561 33.2389 98.6341 33.5492 98.3044 33.6053C98.2591 33.6117 98.2182 33.6139 98.1751 33.6139ZM96.8777 29.5947C96.6622 29.584 96.4575 29.459 96.3584 29.2478C96.1946 28.9008 96.0136 28.5495 95.8239 28.2047C95.6623 27.9138 95.7679 27.5453 96.061 27.3837C96.3541 27.222 96.7226 27.3276 96.8842 27.6207C97.0868 27.9871 97.2786 28.3621 97.4531 28.7306C97.5954 29.0323 97.4661 29.3943 97.1644 29.5366C97.0717 29.5797 96.9747 29.599 96.8777 29.5947ZM94.6796 25.9829C94.5051 25.9743 94.3348 25.8902 94.2206 25.7394C93.99 25.4312 93.7443 25.1187 93.4922 24.8106C93.2788 24.5541 93.3155 24.1727 93.5741 23.9593C93.8305 23.746 94.212 23.7826 94.4253 24.0412C94.6904 24.3623 94.949 24.6899 95.1925 25.0153C95.3929 25.2825 95.3369 25.6618 95.0697 25.8622C94.9533 25.9484 94.8154 25.9872 94.6796 25.9829ZM91.7014 22.9982C91.5936 22.9939 91.4859 22.9594 91.3889 22.8947C91.0786 22.6836 90.7488 22.4831 90.4083 22.3C90.1131 22.1426 90.0032 21.7741 90.1605 21.481C90.32 21.1858 90.6863 21.0759 90.9816 21.2332C91.3587 21.4358 91.7251 21.6578 92.072 21.8927C92.3479 22.0823 92.419 22.4573 92.2315 22.7353C92.1087 22.9141 91.9061 23.0068 91.7014 22.9982ZM78.2453 20.994C77.9781 20.9811 77.7411 20.7914 77.6807 20.5156C77.6118 20.1902 77.8187 19.8669 78.1462 19.798C78.1656 19.7937 78.6246 19.6945 79.394 19.5954C79.7259 19.5523 80.0276 19.7872 80.0707 20.1191C80.1138 20.4509 79.881 20.7548 79.5491 20.7957C78.8358 20.8884 78.4048 20.9811 78.4005 20.9811C78.3488 20.9919 78.2971 20.9962 78.2453 20.994ZM87.8589 21.2612C87.8137 21.2591 87.7684 21.2526 87.7232 21.2397C87.3568 21.1384 86.9754 21.0479 86.5875 20.9703C86.2599 20.9035 86.0487 20.5846 86.1134 20.257C86.1802 19.9294 86.4991 19.7182 86.8267 19.7829C87.2426 19.8669 87.6521 19.9639 88.0486 20.0738C88.3697 20.1622 88.5593 20.4962 88.4688 20.8173C88.3934 21.0953 88.1348 21.2742 87.8589 21.2612ZM82.4627 20.5996C82.1438 20.5846 81.8874 20.3216 81.8852 19.9984C81.883 19.6644 82.1546 19.3907 82.4886 19.3885C82.9002 19.3864 83.3161 19.395 83.7213 19.4122L83.7299 19.4144C84.0639 19.4295 84.3225 19.7118 84.3075 20.0458C84.2924 20.3798 84.0101 20.6384 83.676 20.6233H83.6653C83.2817 20.6039 82.8873 20.5975 82.4951 20.5996C82.4843 20.5996 82.4735 20.5996 82.4627 20.5996Z" fill="#B8C8DE"/>
<path d="M102.793 33.2438C102.468 33.2438 102.199 32.9874 102.188 32.6598C102.175 32.2719 102.166 31.8581 102.164 31.4336C102.162 31.0995 102.429 30.8259 102.765 30.8237C103.099 30.8215 103.373 31.0909 103.375 31.425C103.377 31.8387 103.386 32.2396 103.399 32.6167C103.41 32.9507 103.149 33.233 102.815 33.2438C102.806 33.2438 102.8 33.2438 102.793 33.2438ZM102.834 29.0092C102.826 29.0092 102.815 29.0092 102.806 29.007C102.472 28.9919 102.214 28.7075 102.229 28.3734C102.248 27.9726 102.272 27.561 102.3 27.1537C102.321 26.8218 102.612 26.5697 102.944 26.5912C103.278 26.6128 103.53 26.9015 103.509 27.2356C103.481 27.6343 103.457 28.0372 103.44 28.4316C103.425 28.757 103.155 29.0092 102.834 29.0092ZM103.177 24.7875C103.153 24.7875 103.132 24.7853 103.108 24.7832C102.776 24.7444 102.537 24.4448 102.574 24.1129C102.619 23.7121 102.668 23.3048 102.722 22.9018C102.765 22.5699 103.069 22.335 103.401 22.3803C103.731 22.4234 103.966 22.7273 103.923 23.057C103.871 23.4535 103.821 23.8543 103.778 24.2487C103.742 24.559 103.481 24.7875 103.177 24.7875ZM103.778 20.5938C103.744 20.5938 103.709 20.5895 103.673 20.5852C103.345 20.527 103.123 20.2145 103.181 19.8848C103.235 19.5723 103.291 19.2577 103.349 18.9495C103.367 18.859 103.384 18.7663 103.403 18.6758C103.47 18.3482 103.789 18.137 104.119 18.2038C104.446 18.2706 104.657 18.5917 104.591 18.9193C104.573 19.0034 104.556 19.0874 104.541 19.1715C104.483 19.4753 104.427 19.7856 104.373 20.0916C104.323 20.3869 104.067 20.5938 103.778 20.5938ZM104.864 16.51C104.789 16.51 104.713 16.4949 104.64 16.4669C104.33 16.3419 104.177 15.9906 104.302 15.6803C104.453 15.2967 104.621 14.9131 104.802 14.5338C104.944 14.2321 105.306 14.105 105.608 14.2472C105.91 14.3916 106.039 14.7536 105.894 15.0553C105.726 15.4088 105.569 15.7687 105.427 16.1264C105.332 16.3634 105.104 16.51 104.864 16.51ZM106.856 12.7775C106.737 12.7775 106.621 12.743 106.515 12.674C106.239 12.4865 106.166 12.1094 106.353 11.8336C106.584 11.4952 106.828 11.1547 107.08 10.8229C107.282 10.5578 107.662 10.5039 107.929 10.7065C108.194 10.9091 108.246 11.2883 108.045 11.5556C107.806 11.8702 107.573 12.1913 107.358 12.5124C107.239 12.6848 107.05 12.7775 106.856 12.7775ZM109.545 9.50614C109.392 9.50614 109.239 9.45011 109.121 9.33373C108.881 9.10099 108.877 8.71739 109.112 8.47819C109.399 8.1851 109.698 7.89417 110 7.61186C110.245 7.38559 110.629 7.39852 110.855 7.64419C111.084 7.88771 111.071 8.2713 110.825 8.49974C110.536 8.76696 110.252 9.04496 109.978 9.32511C109.858 9.4458 109.702 9.50614 109.545 9.50614ZM112.75 6.73261C112.562 6.73261 112.379 6.64641 112.26 6.48263C112.062 6.21325 112.122 5.83396 112.392 5.63786C113.028 5.17668 113.426 4.93532 113.444 4.92454C113.73 4.75429 114.103 4.84696 114.275 5.13358C114.448 5.4202 114.355 5.79086 114.068 5.96327C114.064 5.96542 113.693 6.18954 113.105 6.61624C112.997 6.69382 112.872 6.73261 112.75 6.73261Z" fill="#B8C8DE"/>
<path d="M99.1034 27.3429C98.7974 27.3429 98.5345 27.1123 98.5 26.7999C98.4612 26.4249 98.416 26.0219 98.3643 25.606C98.3233 25.2741 98.5582 24.9702 98.8901 24.9314C99.222 24.8883 99.5258 25.1254 99.5668 25.4573C99.6185 25.8818 99.6659 26.2913 99.7047 26.6749C99.7413 27.0067 99.5 27.3041 99.1659 27.3386C99.1444 27.3408 99.1228 27.3429 99.1034 27.3429ZM98.5388 23.1341C98.2457 23.1341 97.9893 22.923 97.9419 22.6256C97.8772 22.2269 97.8104 21.8282 97.7436 21.4381C97.6854 21.1084 97.9053 20.7938 98.235 20.7378C98.5647 20.6796 98.8772 20.8994 98.9354 21.2291C99.0043 21.6256 99.0733 22.0308 99.1379 22.4338C99.1896 22.7635 98.9655 23.0738 98.6358 23.1277C98.6035 23.132 98.5712 23.1341 98.5388 23.1341ZM97.7566 18.9642C97.4786 18.9642 97.2264 18.7724 97.1661 18.4879C97.0799 18.0935 96.9915 17.6992 96.901 17.3177C96.8234 16.9923 97.0238 16.6647 97.3493 16.5893C97.6747 16.5117 98.0022 16.7122 98.0777 17.0376C98.1703 17.4276 98.263 17.8285 98.3492 18.2315C98.4203 18.5569 98.2134 18.8801 97.8859 18.9512C97.8428 18.9599 97.7997 18.9642 97.7566 18.9642ZM96.7114 14.8545C96.4484 14.8545 96.2092 14.6843 96.1295 14.4235C96.0131 14.0335 95.8946 13.6499 95.7718 13.2835C95.6683 12.9646 95.8407 12.6241 96.1575 12.5185C96.4765 12.4129 96.8191 12.5853 96.9226 12.9042C97.0475 13.2813 97.1725 13.6757 97.2911 14.0766C97.3859 14.3977 97.2049 14.7338 96.8838 14.8287C96.8256 14.8459 96.7674 14.8545 96.7114 14.8545ZM95.2718 10.8677C95.0391 10.8677 94.8171 10.7319 94.718 10.5057C94.5542 10.135 94.3839 9.77511 94.2137 9.44108C94.0628 9.14369 94.1814 8.77949 94.4809 8.62648C94.7783 8.47563 95.1425 8.59415 95.2934 8.8937C95.4744 9.24713 95.6532 9.62641 95.8256 10.0186C95.9614 10.3246 95.8213 10.6824 95.5153 10.816C95.4356 10.8505 95.3537 10.8677 95.2718 10.8677ZM93.1038 7.2451C92.9336 7.2451 92.7633 7.17399 92.6448 7.03607C92.3991 6.7516 92.1319 6.4736 91.8496 6.20853C91.6061 5.9801 91.5953 5.59651 91.8238 5.35299C92.0543 5.10947 92.4379 5.09869 92.6815 5.32713C92.9918 5.62021 93.2892 5.93054 93.5607 6.24517C93.7805 6.49946 93.7525 6.8809 93.4982 7.09856C93.384 7.19769 93.2439 7.2451 93.1038 7.2451ZM89.8433 4.5664C89.7377 4.5664 89.6299 4.54054 89.533 4.48235C89.2075 4.2884 88.8627 4.10091 88.5093 3.9242C88.2098 3.77335 88.0869 3.4113 88.2378 3.11176C88.3865 2.81221 88.7507 2.69152 89.0502 2.84022C89.4295 3.02986 89.8002 3.23244 90.1514 3.44147C90.4402 3.61172 90.535 3.98454 90.3626 4.27116C90.2506 4.4608 90.0502 4.5664 89.8433 4.5664ZM85.9728 2.851C85.9125 2.851 85.8479 2.84238 85.7875 2.82083C85.419 2.7023 85.0376 2.59024 84.654 2.4868C84.3307 2.40059 84.1389 2.06872 84.2251 1.74547C84.3113 1.42437 84.6432 1.23257 84.9664 1.31877C85.3694 1.42652 85.7724 1.54505 86.1603 1.67004C86.4771 1.77348 86.6517 2.11397 86.5504 2.43292C86.4663 2.68721 86.2293 2.851 85.9728 2.851ZM81.8395 1.90494C81.8115 1.90494 81.7835 1.90278 81.7554 1.89847C81.04 1.79934 80.6004 1.77348 80.596 1.77348C80.262 1.75409 80.0056 1.46747 80.025 1.13559C80.0422 0.801561 80.3288 0.545112 80.6628 0.564508C80.6822 0.564508 81.152 0.592524 81.9235 0.700275C82.2533 0.745531 82.486 1.05154 82.4386 1.38342C82.3976 1.68512 82.1369 1.90494 81.8395 1.90494Z" fill="#B8C8DE"/>
<path d="M39.3231 33.3038C39.2886 33.3038 39.2541 33.3017 39.2196 33.2952C38.8899 33.2392 38.668 32.9267 38.724 32.597C38.7283 32.5776 38.808 32.1121 39.0106 31.3557C39.0968 31.0324 39.4287 30.8406 39.7519 30.9268C40.0752 31.013 40.267 31.3427 40.1808 31.666C39.9955 32.3664 39.92 32.7974 39.9179 32.8017C39.8683 33.0969 39.6119 33.3038 39.3231 33.3038ZM40.5644 29.2437C40.489 29.2437 40.4114 29.2287 40.3359 29.1985C40.0256 29.0713 39.8791 28.7179 40.0041 28.4076C40.1614 28.024 40.3316 27.6404 40.5062 27.2697C40.6484 26.968 41.0083 26.8387 41.3122 26.981C41.6139 27.1232 41.7432 27.4831 41.601 27.7848C41.435 28.1382 41.2755 28.5002 41.1268 28.8666C41.0299 29.1015 40.8036 29.2437 40.5644 29.2437ZM42.5319 25.4918C42.4177 25.4918 42.3013 25.4595 42.1979 25.3905C41.9199 25.2074 41.8445 24.8302 42.0276 24.5522C42.2604 24.201 42.5039 23.8583 42.7517 23.5329C42.9543 23.2657 43.3358 23.214 43.6008 23.4165C43.868 23.6191 43.9198 23.9984 43.7172 24.2656C43.4844 24.5695 43.256 24.8927 43.0384 25.2203C42.922 25.397 42.728 25.4918 42.5319 25.4918ZM45.2774 22.2744C45.1115 22.2744 44.9456 22.2076 44.827 22.0739C44.6029 21.8261 44.6223 21.4447 44.8723 21.2206C45.1848 20.9382 45.5123 20.6667 45.8442 20.4167C46.1093 20.2142 46.4886 20.268 46.6911 20.5331C46.8937 20.8003 46.842 21.1796 46.5748 21.3822C46.2709 21.6106 45.9714 21.8606 45.6826 22.1192C45.5662 22.2248 45.4218 22.2744 45.2774 22.2744ZM48.8009 19.9577C48.5703 19.9577 48.3505 19.8262 48.2492 19.6021C48.1113 19.2983 48.2449 18.9384 48.5509 18.8005C48.9302 18.6281 49.3267 18.4707 49.7233 18.3328C50.0379 18.2229 50.3849 18.3888 50.4948 18.7035C50.6047 19.0203 50.4387 19.3651 50.1219 19.475C49.7599 19.6021 49.3979 19.7465 49.0509 19.9038C48.969 19.9405 48.885 19.9577 48.8009 19.9577ZM58.2874 19.0181C58.2529 19.0181 58.2162 19.016 58.1818 19.0095C57.7895 18.9405 57.3973 18.8845 57.018 18.8392C56.684 18.8005 56.447 18.4987 56.4858 18.1669C56.5267 17.835 56.8262 17.5979 57.1581 17.6367C57.5611 17.6841 57.977 17.7445 58.3908 17.8178C58.7205 17.8738 58.9403 18.1884 58.8821 18.5181C58.8304 18.8112 58.5761 19.0181 58.2874 19.0181ZM52.861 18.8306C52.5593 18.8306 52.2985 18.6043 52.2597 18.2983C52.2188 17.9665 52.4558 17.6648 52.7877 17.6238C53.195 17.5721 53.6174 17.5376 54.0376 17.5182C54.3717 17.5031 54.6561 17.7596 54.6712 18.0936C54.6863 18.4276 54.4277 18.7121 54.0937 18.7272C53.7036 18.7444 53.3135 18.7789 52.9364 18.8242C52.9106 18.8285 52.8847 18.8306 52.861 18.8306Z" fill="#B8C8DE"/>
<path d="M32.4011 33.069C32.1231 33.0561 31.8796 32.8514 31.8322 32.5647C31.7697 32.1941 31.6878 31.8148 31.5887 31.4334C31.5047 31.1101 31.6986 30.7804 32.0219 30.6963C32.3451 30.6101 32.677 30.8041 32.761 31.1273C32.8688 31.5433 32.9593 31.9592 33.0261 32.3643C33.0821 32.694 32.8602 33.0065 32.5305 33.0604C32.4852 33.069 32.4442 33.0712 32.4011 33.069ZM31.1038 29.0499C30.8883 29.0391 30.6836 28.9141 30.5845 28.7029C30.4207 28.356 30.2397 28.0069 30.05 27.662C29.8884 27.369 29.994 27.0005 30.2871 26.8388C30.5801 26.6772 30.9487 26.7828 31.1103 27.0759C31.3129 27.4422 31.5047 27.8172 31.6792 28.1857C31.8214 28.4896 31.6921 28.8495 31.3904 28.9917C31.2978 29.037 31.2008 29.0542 31.1038 29.0499ZM28.9057 25.4381C28.7311 25.4294 28.5609 25.3454 28.4467 25.1945C28.2161 24.8864 27.9704 24.5739 27.7183 24.2657C27.5049 24.0093 27.5416 23.6278 27.8002 23.4145C28.0566 23.2011 28.438 23.2378 28.6514 23.4964C28.9165 23.8175 29.1751 24.145 29.4186 24.4704C29.619 24.7377 29.563 25.117 29.2957 25.3174C29.1794 25.4057 29.0415 25.4445 28.9057 25.4381ZM25.9274 22.4533C25.8197 22.449 25.7119 22.4145 25.615 22.3499C25.3046 22.1387 24.9749 21.9383 24.6344 21.7551C24.3392 21.5978 24.2293 21.2314 24.3866 20.9362C24.5461 20.641 24.9124 20.531 25.2077 20.6905C25.5848 20.8931 25.9511 21.1151 26.2981 21.35C26.5739 21.5374 26.6451 21.9146 26.4576 22.1904C26.3347 22.3693 26.1322 22.4641 25.9274 22.4533ZM12.4714 20.4492C12.2042 20.4384 11.9671 20.2466 11.9068 19.9707C11.8378 19.6453 12.0447 19.3242 12.3723 19.2531C12.3917 19.2488 12.8507 19.1518 13.6201 19.0527C13.9519 19.0096 14.2536 19.2423 14.2967 19.5742C14.3398 19.9061 14.1071 20.2099 13.7752 20.253C13.0619 20.3436 12.6309 20.4362 12.6266 20.4362C12.5749 20.447 12.5231 20.4513 12.4714 20.4492ZM22.085 20.7164C22.0398 20.7142 21.9945 20.7078 21.9492 20.6948C21.5829 20.5935 21.2015 20.503 20.8135 20.4255C20.486 20.3586 20.2748 20.0397 20.3394 19.7121C20.4062 19.3846 20.7252 19.1734 21.0528 19.238C21.4687 19.3221 21.8781 19.4191 22.2747 19.529C22.5958 19.6173 22.7854 19.9513 22.6949 20.2746C22.6195 20.5504 22.3609 20.7293 22.085 20.7164ZM16.6888 20.0548C16.3699 20.0397 16.1134 19.7768 16.1113 19.4535C16.1091 19.1195 16.3806 18.8458 16.7147 18.8458C17.1263 18.8415 17.5422 18.8501 17.9474 18.8695H17.956C18.29 18.8846 18.5486 19.1669 18.5335 19.5009C18.5184 19.835 18.2361 20.0936 17.9021 20.0785H17.8913C17.5077 20.0613 17.1134 20.0526 16.7211 20.0548C16.7104 20.0548 16.6996 20.0548 16.6888 20.0548Z" fill="#B8C8DE"/>
<path d="M37.0199 32.6983C36.6945 32.6983 36.4251 32.4418 36.4143 32.1143C36.4014 31.7263 36.3928 31.3126 36.3906 30.888C36.3885 30.554 36.6557 30.2803 36.9919 30.2782C37.3259 30.276 37.5996 30.5454 37.6018 30.8794C37.6039 31.2932 37.6125 31.694 37.6255 32.0733C37.6362 32.4073 37.3755 32.6875 37.0415 32.6983C37.0328 32.6983 37.0264 32.6983 37.0199 32.6983ZM37.0609 28.4636C37.0522 28.4636 37.0415 28.4636 37.0328 28.4636C36.6988 28.4464 36.4402 28.1641 36.4553 27.83C36.4747 27.4271 36.4984 27.0176 36.5264 26.6103C36.548 26.2763 36.8389 26.0241 37.1708 26.0457C37.5048 26.0694 37.7569 26.356 37.7354 26.69C37.7074 27.0909 37.6837 27.4939 37.6664 27.8882C37.6492 28.2115 37.382 28.4636 37.0609 28.4636ZM37.4035 24.2419C37.3798 24.2419 37.3582 24.2398 37.3345 24.2376C37.0027 24.201 36.7635 23.9014 36.8001 23.5674C36.8453 23.1666 36.8949 22.7593 36.9488 22.3563C36.9919 22.0244 37.2958 21.7916 37.6276 21.8348C37.9573 21.8779 38.1922 22.1817 38.1491 22.5136C38.0974 22.908 38.0479 23.3088 38.0048 23.7032C37.9681 24.0135 37.7074 24.2419 37.4035 24.2419ZM38.0048 20.0482C37.9703 20.0482 37.9358 20.0461 37.8992 20.0396C37.5716 19.9814 37.3496 19.6689 37.4078 19.3392C37.4617 19.0267 37.5177 18.7143 37.5759 18.4039C37.5931 18.3134 37.6104 18.2229 37.6298 18.1324C37.6966 17.8048 38.0155 17.5936 38.3453 17.6605C38.6728 17.7273 38.884 18.0462 38.8172 18.3738C38.8 18.4578 38.7827 18.5419 38.7676 18.6281C38.7095 18.9319 38.6534 19.2401 38.5995 19.5461C38.55 19.8413 38.2935 20.0482 38.0048 20.0482ZM39.0909 15.9644C39.0155 15.9644 38.94 15.9494 38.8668 15.9213C38.5564 15.7985 38.4034 15.4451 38.5284 15.1348C38.6793 14.7533 38.8474 14.3676 39.0284 13.9904C39.1706 13.6866 39.5327 13.5594 39.8344 13.7038C40.1361 13.8461 40.2654 14.2081 40.121 14.5098C39.9529 14.8632 39.7956 15.2231 39.6534 15.583C39.5585 15.8201 39.3301 15.9644 39.0909 15.9644ZM41.0821 12.2319C40.9636 12.2319 40.8472 12.1996 40.7416 12.1285C40.4658 11.941 40.3925 11.566 40.58 11.288C40.8106 10.9497 41.0541 10.6092 41.3063 10.2773C41.5088 10.0123 41.8881 9.96053 42.1553 10.1631C42.4204 10.3635 42.4721 10.745 42.2717 11.01C42.0325 11.3247 41.7998 11.6458 41.5843 11.9669C41.4657 12.1393 41.2761 12.2319 41.0821 12.2319ZM43.7716 8.96275C43.6186 8.96275 43.4656 8.90456 43.3471 8.78819C43.1079 8.55545 43.1036 8.17185 43.3385 7.93265C43.6251 7.63956 43.9246 7.34863 44.2263 7.06848C44.472 6.84004 44.8556 6.85513 45.0819 7.09865C45.3103 7.34432 45.2974 7.72576 45.0517 7.9542C44.7629 8.22357 44.4785 8.50157 44.2048 8.77957C44.0841 8.90025 43.9289 8.96275 43.7716 8.96275ZM46.9761 6.18707C46.7887 6.18707 46.6055 6.10087 46.487 5.93709C46.2887 5.66771 46.349 5.28842 46.6184 5.09231C47.2541 4.63114 47.655 4.38977 47.6701 4.38115C47.9567 4.20875 48.3295 4.30142 48.5019 4.58804C48.6743 4.87466 48.5816 5.24532 48.295 5.41772C48.2907 5.41988 47.9201 5.644 47.3317 6.0707C47.224 6.15043 47.099 6.18707 46.9761 6.18707Z" fill="#B8C8DE"/>
<mask id="mask0_1729_4086" style="mask-type:luminance" maskUnits="userSpaceOnUse" x="13" y="0" width="22" height="28">
<path d="M13.7407 0H34.1532V27.2461H13.7407V0Z" fill="white"/>
</mask>
<g mask="url(#mask0_1729_4086)">
<path d="M33.33 26.798C33.024 26.798 32.7611 26.5674 32.7266 26.2571C32.6878 25.88 32.6426 25.477 32.5908 25.061C32.5499 24.7292 32.7848 24.4275 33.1167 24.3865C33.4485 24.3434 33.7524 24.5805 33.7933 24.9123C33.8451 25.3369 33.8925 25.7463 33.9313 26.1299C33.9679 26.4618 33.7265 26.7592 33.3925 26.7958C33.371 26.798 33.3494 26.798 33.33 26.798ZM32.7654 22.5892C32.4723 22.5892 32.2159 22.378 32.1684 22.0806C32.1038 21.682 32.037 21.2833 31.9702 20.8932C31.912 20.5635 32.1318 20.251 32.4615 20.1928C32.7913 20.1346 33.1037 20.3545 33.1619 20.6842C33.2309 21.0807 33.2998 21.4859 33.3645 21.8888C33.4162 22.2186 33.1921 22.5289 32.8624 22.5828C32.83 22.5871 32.7977 22.5892 32.7654 22.5892ZM31.9831 18.4214C31.7051 18.4214 31.453 18.2274 31.3926 17.943C31.3064 17.5486 31.2181 17.1542 31.1276 16.7728C31.05 16.4474 31.2504 16.122 31.5758 16.0444C31.9012 15.9668 32.2288 16.1694 32.3042 16.4926C32.3969 16.8827 32.4895 17.2835 32.5757 17.6865C32.6469 18.0141 32.44 18.3352 32.1124 18.4063C32.0693 18.4171 32.0262 18.4214 31.9831 18.4214ZM30.9379 14.3118C30.675 14.3118 30.4358 14.1415 30.3561 13.8786C30.2397 13.4885 30.1212 13.1049 29.9983 12.7386C29.8949 12.4218 30.0673 12.0791 30.3841 11.9735C30.703 11.8701 31.0457 12.0425 31.1491 12.3593C31.2741 12.7386 31.3991 13.1329 31.5176 13.5316C31.6124 13.8527 31.4314 14.1889 31.1103 14.2859C31.0521 14.3031 30.994 14.3118 30.9379 14.3118ZM29.4984 10.3228C29.2656 10.3228 29.0437 10.1892 28.9445 9.9629C28.7807 9.59008 28.6105 9.23234 28.4402 8.89616C28.2894 8.59876 28.4079 8.23456 28.7075 8.08371C29.0049 7.93286 29.3691 8.05139 29.5199 8.34878C29.7009 8.70436 29.8798 9.08149 30.0522 9.47371C30.188 9.77972 30.0479 10.1375 29.7419 10.2711C29.6621 10.3077 29.5803 10.3228 29.4984 10.3228ZM27.3304 6.70234C27.1602 6.70234 26.9899 6.63122 26.8714 6.49114C26.6257 6.20668 26.3585 5.92868 26.0762 5.66361C25.8327 5.43518 25.8219 5.05158 26.0503 4.80807C26.2809 4.56455 26.6645 4.55377 26.908 4.78221C27.2183 5.07744 27.5157 5.38561 27.7873 5.70025C28.0071 5.95454 27.9791 6.33598 27.7248 6.55364C27.6106 6.65277 27.4705 6.70234 27.3304 6.70234ZM24.0698 4.02363C23.9642 4.02363 23.8565 3.99562 23.7595 3.93743C23.4341 3.74348 23.0893 3.55599 22.7359 3.37928C22.4363 3.23058 22.3135 2.86638 22.4643 2.56683C22.613 2.26944 22.9772 2.1466 23.2768 2.29745C23.6561 2.4871 24.0267 2.68752 24.378 2.89655C24.6668 3.06896 24.7616 3.43962 24.5892 3.72624C24.4771 3.91804 24.2767 4.02363 24.0698 4.02363ZM20.1994 2.30607C20.1391 2.30607 20.0744 2.29745 20.0141 2.2759C19.6456 2.15738 19.2641 2.04532 18.8805 1.94187C18.5573 1.85567 18.3655 1.5238 18.4517 1.2027C18.5379 0.879443 18.8698 0.687646 19.193 0.773847C19.596 0.881599 19.999 1.00013 20.3869 1.12512C20.7037 1.22856 20.8782 1.56905 20.777 1.888C20.6929 2.14445 20.4559 2.30607 20.1994 2.30607ZM16.0661 1.36002C16.038 1.36002 16.01 1.35786 15.982 1.35355C15.2665 1.25442 14.8269 1.22856 14.8226 1.22856C14.4886 1.20916 14.2321 0.924699 14.2515 0.59067C14.2688 0.25664 14.5554 0.000190618 14.8894 0.0195863C14.9088 0.0217412 15.3786 0.047602 16.1501 0.155353C16.4798 0.200609 16.7126 0.506624 16.6652 0.838498C16.6242 1.1402 16.3635 1.36002 16.0661 1.36002Z" fill="#B8C8DE"/>
</g>
<path d="M58.7682 56.6685C54.5163 56.6232 53.3375 58.9399 53.0099 60.2006C52.7341 58.4162 52.1716 56.453 51.1329 54.4617C56.4666 54.0975 56.333 50.1668 56.333 50.1668C52.4712 50.1237 51.1437 52.0352 50.689 53.3282C50.4691 48.6194 46.6828 48.3608 46.6828 48.3608C46.4543 53.423 49.4304 54.2936 50.3851 54.4423C50.3786 54.5091 50.3916 54.5759 50.426 54.6406C50.9217 55.5694 51.3074 56.4939 51.607 57.3947C47.9284 53.7096 44.8833 56.4013 44.8833 56.4013C48.3163 60.1101 51.023 58.6209 51.8074 58.0434C52.5574 60.6294 52.6069 62.9957 52.4625 64.7305C52.2406 67.4199 51.5208 69.2215 51.51 69.2496C51.4346 69.4306 51.523 69.6375 51.704 69.7107C51.7471 69.728 51.7923 69.7366 51.8376 69.7366C51.9777 69.7366 52.1091 69.6525 52.1652 69.5168C52.1975 69.4392 52.9323 67.6117 53.1672 64.8167C53.2578 63.7435 53.2771 62.4353 53.1134 60.9872C58.9082 60.8191 58.7682 56.6685 58.7682 56.6685Z" fill="#3D8375"/>
<path d="M93.3629 56.8023C89.1132 56.757 87.9322 59.0737 87.6046 60.3344C87.331 58.55 86.7663 56.5868 85.7276 54.5955C91.0635 54.2313 90.9299 50.2984 90.9299 50.2984C87.068 50.2574 85.7405 52.1668 85.2858 53.462C85.0639 48.7532 81.2796 48.4946 81.2796 48.4946C81.049 53.5568 84.0273 54.4274 84.982 54.5761C84.9755 54.6408 84.9884 54.7097 85.0208 54.7722C85.5186 55.7032 85.9043 56.6256 86.2039 57.5285C82.5252 53.8434 79.478 56.535 79.478 56.535C82.9131 60.2417 85.6199 58.7547 86.4043 58.1772C87.1521 60.7632 87.2017 63.1294 87.0594 64.8642C86.8353 67.5537 86.1155 69.3553 86.1047 69.3812C86.0315 69.5644 86.1177 69.7712 86.3009 69.8445C86.344 69.8618 86.3892 69.8704 86.4345 69.8704C86.5745 69.8704 86.706 69.7863 86.762 69.6506C86.7922 69.573 87.5271 67.7455 87.7641 64.9504C87.8546 63.8751 87.8719 62.5691 87.7102 61.121C93.5051 60.9529 93.3629 56.8023 93.3629 56.8023Z" fill="#3D8375"/>
<path d="M62.9378 56.2569C67.1897 56.2116 68.3685 58.5283 68.696 59.789C68.9719 58.0046 69.5343 56.0435 70.5731 54.0501C65.2394 53.6859 65.373 49.7551 65.373 49.7551C69.2348 49.712 70.5623 51.6235 71.017 52.9166C71.2368 48.2078 75.0232 47.9492 75.0232 47.9492C75.2516 53.0114 72.2755 53.882 71.3209 54.0307C71.3273 54.0975 71.3144 54.1643 71.2799 54.229C70.7843 55.1578 70.3985 56.0823 70.099 56.9831C73.7776 53.298 76.8227 55.9896 76.8227 55.9896C73.3897 59.6984 70.683 58.2093 69.8985 57.6318C69.1486 60.2178 69.099 62.584 69.2434 64.3188C69.4654 67.0083 70.1852 68.8099 70.1959 68.8379C70.2714 69.019 70.183 69.2258 70.002 69.2991C69.9589 69.3164 69.9136 69.325 69.8684 69.325C69.7283 69.325 69.5968 69.2431 69.5408 69.1052C69.5085 69.0276 68.7736 67.2001 68.5387 64.405C68.4482 63.3318 68.4288 62.0237 68.5926 60.5755C62.7977 60.4075 62.9378 56.2569 62.9378 56.2569Z" fill="#3D8375"/>
<path d="M30.4249 57.2139C26.1752 57.1686 24.9942 59.4853 24.6667 60.746C24.3908 58.9616 23.8284 56.9984 22.7896 55.0071C28.1255 54.6429 27.9919 50.71 27.9919 50.71C24.1301 50.6691 22.8026 52.5784 22.3457 53.8736C22.1259 49.1627 18.3416 48.9062 18.3416 48.9062C18.1111 53.9663 21.0893 54.8391 22.044 54.9877C22.0375 55.0524 22.0505 55.1214 22.0828 55.1839C22.5784 56.1148 22.9663 57.0372 23.2637 57.9401C19.5851 54.255 16.54 56.9467 16.54 56.9467C19.9752 60.6533 22.6797 59.1664 23.4663 58.5888C24.2141 61.1748 24.2637 63.5411 24.1193 65.2759C23.8973 67.9632 23.1775 69.767 23.1668 69.7928C23.0935 69.976 23.1797 70.1807 23.3607 70.2561C23.406 70.2734 23.4512 70.282 23.4943 70.282C23.6344 70.282 23.768 70.198 23.824 70.06C23.8542 69.9846 24.5891 68.1571 24.824 65.3621C24.9145 64.2867 24.9339 62.9808 24.7723 61.5326C30.5671 61.3645 30.4249 57.2139 30.4249 57.2139Z" fill="#3D8375"/>
<path d="M0.000298107 56.6685C4.25217 56.6232 5.43098 58.9399 5.75854 60.2006C6.03439 58.4162 6.59685 56.453 7.63557 54.4617C2.30187 54.0975 2.43333 50.1668 2.43333 50.1668C6.2973 50.1237 7.62264 52.0352 8.07951 53.3282C8.29932 48.6194 12.0857 48.3608 12.0857 48.3608C12.3141 53.423 9.33805 54.2936 8.38337 54.4423C8.38768 54.5091 8.3769 54.5759 8.34242 54.6406C7.84677 55.5694 7.46102 56.4939 7.16147 57.3947C10.8401 53.7096 13.8852 56.4013 13.8852 56.4013C10.4522 60.1101 7.74548 58.6209 6.95889 58.0434C6.2111 60.6294 6.16153 62.9957 6.30592 64.7305C6.52789 67.4199 7.24767 69.2215 7.25844 69.2496C7.33387 69.4306 7.24551 69.6375 7.06449 69.7107C7.02139 69.728 6.97613 69.7366 6.93088 69.7366C6.7908 69.7366 6.65719 69.6525 6.60116 69.5168C6.57099 69.4392 5.83612 67.6117 5.60122 64.8167C5.51071 63.7435 5.49132 62.4353 5.65295 60.9872C-0.139779 60.8191 0.000298107 56.6685 0.000298107 56.6685Z" fill="#3D8375"/>
<path d="M106.741 125.209C106.709 125.209 106.675 125.205 106.638 125.201C106.31 125.142 106.088 124.83 106.144 124.502C106.149 124.481 106.228 124.018 106.431 123.259C106.517 122.936 106.849 122.744 107.172 122.83C107.496 122.916 107.687 123.248 107.601 123.571C107.414 124.27 107.338 124.703 107.338 124.707C107.287 125 107.032 125.209 106.741 125.209ZM107.985 121.147C107.909 121.147 107.832 121.132 107.756 121.102C107.446 120.977 107.297 120.623 107.424 120.313C107.582 119.927 107.75 119.546 107.924 119.175C108.069 118.871 108.429 118.742 108.73 118.884C109.034 119.026 109.164 119.389 109.021 119.69C108.855 120.042 108.696 120.406 108.545 120.772C108.45 121.005 108.224 121.147 107.985 121.147ZM109.952 117.395C109.838 117.395 109.722 117.363 109.618 117.296C109.34 117.111 109.263 116.736 109.448 116.458C109.681 116.106 109.924 115.764 110.172 115.436C110.375 115.171 110.756 115.119 111.021 115.322C111.288 115.525 111.338 115.904 111.135 116.169C110.905 116.475 110.676 116.796 110.459 117.126C110.342 117.3 110.148 117.395 109.952 117.395ZM112.698 114.18C112.532 114.18 112.366 114.113 112.247 113.979C112.023 113.732 112.043 113.348 112.293 113.124C112.605 112.842 112.933 112.572 113.262 112.322C113.53 112.12 113.909 112.171 114.112 112.439C114.314 112.704 114.262 113.083 113.995 113.285C113.691 113.516 113.39 113.764 113.101 114.025C112.987 114.128 112.842 114.18 112.698 114.18ZM116.221 111.863C115.991 111.863 115.771 111.73 115.67 111.508C115.53 111.202 115.665 110.844 115.969 110.706C116.351 110.534 116.745 110.376 117.144 110.236C117.458 110.126 117.803 110.294 117.913 110.609C118.025 110.924 117.857 111.271 117.542 111.38C117.178 111.505 116.818 111.65 116.471 111.807C116.389 111.846 116.303 111.863 116.221 111.863ZM125.708 110.924C125.673 110.924 125.637 110.919 125.602 110.913C125.21 110.846 124.818 110.788 124.436 110.743C124.104 110.704 123.867 110.404 123.906 110.072C123.945 109.74 124.247 109.501 124.579 109.54C124.982 109.59 125.397 109.65 125.811 109.721C126.139 109.779 126.361 110.092 126.303 110.421C126.251 110.717 125.997 110.924 125.708 110.924ZM120.281 110.734C119.98 110.734 119.719 110.51 119.68 110.204C119.639 109.872 119.874 109.57 120.206 109.529C120.615 109.478 121.036 109.441 121.458 109.422C121.792 109.406 122.074 109.665 122.092 109.999C122.107 110.333 121.848 110.615 121.514 110.63C121.124 110.65 120.734 110.682 120.357 110.73C120.331 110.732 120.305 110.734 120.281 110.734Z" fill="#B8C8DE"/>
<path d="M99.8216 124.973C99.5414 124.96 99.3 124.755 99.2526 124.468C99.1901 124.1 99.1082 123.718 99.0091 123.339C98.9251 123.016 99.119 122.684 99.4423 122.6C99.7655 122.516 100.095 122.71 100.181 123.033C100.289 123.447 100.38 123.863 100.447 124.268C100.503 124.598 100.278 124.91 99.9487 124.966C99.9056 124.973 99.8625 124.975 99.8216 124.973ZM98.5242 120.956C98.3087 120.945 98.104 120.818 98.0049 120.609C97.8411 120.262 97.6601 119.91 97.4704 119.566C97.3088 119.272 97.4144 118.904 97.7075 118.742C97.9984 118.583 98.3669 118.688 98.5307 118.979C98.7333 119.348 98.9251 119.721 99.0996 120.091C99.2419 120.393 99.1126 120.755 98.8109 120.897C98.7182 120.94 98.6212 120.96 98.5242 120.956ZM96.3261 117.342C96.1515 117.335 95.9813 117.251 95.8671 117.1C95.6365 116.79 95.3908 116.477 95.1365 116.171C94.9253 115.913 94.962 115.531 95.2184 115.32C95.477 115.107 95.8585 115.143 96.0718 115.402C96.3369 115.723 96.5955 116.051 96.8368 116.376C97.0373 116.643 96.9834 117.023 96.7162 117.223C96.5976 117.309 96.4597 117.348 96.3261 117.342ZM93.3478 114.359C93.2401 114.355 93.1323 114.32 93.0354 114.253C92.725 114.042 92.3953 113.844 92.0548 113.661C91.7596 113.503 91.6497 113.135 91.807 112.842C91.9665 112.547 92.3328 112.437 92.6281 112.594C93.0052 112.797 93.3716 113.019 93.7164 113.253C93.9944 113.441 94.0655 113.818 93.8758 114.094C93.7551 114.275 93.5504 114.368 93.3478 114.359ZM79.8918 112.355C79.6246 112.342 79.3876 112.15 79.3272 111.876C79.2583 111.549 79.4651 111.228 79.7927 111.159C79.8121 111.154 80.2711 111.055 81.0383 110.956C81.3702 110.913 81.674 111.148 81.7171 111.48C81.7602 111.812 81.5253 112.113 81.1935 112.157C80.4802 112.249 80.0513 112.34 80.047 112.342C79.9953 112.353 79.9436 112.357 79.8918 112.355ZM89.5054 112.622C89.4602 112.62 89.4149 112.611 89.3697 112.601C89.0033 112.499 88.6219 112.407 88.234 112.329C87.9064 112.264 87.693 111.945 87.7599 111.618C87.8245 111.29 88.1434 111.079 88.4732 111.144C88.8869 111.226 89.2985 111.325 89.6929 111.432C90.0162 111.523 90.2037 111.857 90.1153 112.178C90.0377 112.456 89.7813 112.633 89.5054 112.622ZM84.1092 111.958C83.7903 111.945 83.5338 111.682 83.5317 111.359C83.5295 111.023 83.7989 110.752 84.1329 110.749C84.5467 110.747 84.9626 110.756 85.3656 110.773H85.3764C85.7104 110.79 85.969 111.073 85.9539 111.407C85.9389 111.741 85.6544 111.999 85.3204 111.984L85.3117 111.982C84.9281 111.965 84.5338 111.958 84.1416 111.96C84.1308 111.96 84.12 111.96 84.1092 111.958Z" fill="#B8C8DE"/>
<path d="M104.438 124.604C104.115 124.604 103.845 124.347 103.834 124.02C103.819 123.63 103.813 123.218 103.809 122.791C103.806 122.457 104.076 122.186 104.41 122.184C104.746 122.179 105.018 122.451 105.02 122.785C105.024 123.199 105.031 123.599 105.046 123.977C105.056 124.311 104.796 124.591 104.462 124.604C104.453 124.604 104.446 124.604 104.438 124.604ZM104.481 120.369C104.47 120.369 104.462 120.367 104.451 120.367C104.117 120.352 103.86 120.067 103.875 119.733C103.895 119.333 103.919 118.921 103.947 118.514C103.968 118.18 104.257 117.927 104.591 117.951C104.925 117.973 105.177 118.261 105.153 118.596C105.127 118.994 105.104 119.397 105.084 119.792C105.069 120.115 104.802 120.369 104.481 120.369ZM104.824 116.145C104.8 116.145 104.776 116.145 104.755 116.143C104.421 116.104 104.184 115.805 104.22 115.473C104.265 115.072 104.315 114.665 104.367 114.262C104.41 113.93 104.714 113.695 105.046 113.738C105.377 113.781 105.612 114.085 105.569 114.417C105.518 114.813 105.468 115.214 105.423 115.609C105.388 115.917 105.127 116.145 104.824 116.145ZM105.425 111.954C105.39 111.954 105.354 111.949 105.319 111.943C104.99 111.887 104.77 111.572 104.826 111.245C104.882 110.932 104.938 110.618 104.996 110.309C105.013 110.217 105.031 110.126 105.05 110.036C105.117 109.708 105.436 109.497 105.763 109.564C106.091 109.631 106.302 109.952 106.235 110.279C106.218 110.363 106.203 110.447 106.186 110.531C106.13 110.835 106.074 111.146 106.02 111.452C105.968 111.745 105.714 111.954 105.425 111.954ZM106.509 107.868C106.436 107.868 106.36 107.855 106.287 107.825C105.974 107.702 105.824 107.351 105.946 107.04C106.099 106.657 106.267 106.271 106.446 105.894C106.591 105.592 106.953 105.463 107.255 105.607C107.556 105.752 107.686 106.111 107.541 106.413C107.373 106.769 107.216 107.129 107.073 107.486C106.979 107.723 106.75 107.868 106.509 107.868ZM108.5 104.137C108.384 104.137 108.265 104.103 108.162 104.034C107.886 103.846 107.813 103.469 108 103.194C108.229 102.853 108.474 102.515 108.726 102.183C108.929 101.916 109.308 101.864 109.575 102.066C109.841 102.269 109.892 102.648 109.69 102.916C109.45 103.228 109.22 103.551 109.002 103.872C108.886 104.045 108.694 104.137 108.5 104.137ZM111.19 100.866C111.039 100.866 110.886 100.808 110.767 100.694C110.528 100.459 110.524 100.077 110.759 99.8381C111.045 99.545 111.345 99.2541 111.646 98.9718C111.892 98.7455 112.276 98.7585 112.502 99.0041C112.73 99.2476 112.715 99.6312 112.472 99.8597C112.183 100.127 111.896 100.405 111.623 100.685C111.504 100.806 111.347 100.866 111.19 100.866ZM114.396 98.0925C114.209 98.0925 114.023 98.0042 113.905 97.8426C113.709 97.5732 113.769 97.1939 114.039 96.9978C114.674 96.5345 115.073 96.2952 115.09 96.2845C115.377 96.1121 115.75 96.2047 115.922 96.4914C116.092 96.778 116 97.1508 115.713 97.3232C115.711 97.3254 115.338 97.5495 114.752 97.9762C114.644 98.0538 114.519 98.0925 114.396 98.0925Z" fill="#B8C8DE"/>
<path d="M100.748 118.703C100.442 118.703 100.179 118.471 100.147 118.16C100.108 117.785 100.061 117.382 100.011 116.964C99.9703 116.632 100.205 116.331 100.537 116.29C100.869 116.249 101.171 116.486 101.212 116.818C101.265 117.242 101.311 117.652 101.352 118.033C101.386 118.367 101.145 118.664 100.813 118.699C100.791 118.701 100.77 118.703 100.748 118.703ZM100.186 114.494C99.8927 114.494 99.6363 114.283 99.5889 113.984C99.5242 113.587 99.4574 113.189 99.3884 112.798C99.3324 112.469 99.5522 112.154 99.8819 112.098C100.212 112.04 100.524 112.26 100.582 112.589C100.651 112.986 100.72 113.391 100.785 113.794C100.837 114.124 100.613 114.434 100.281 114.486C100.248 114.492 100.216 114.494 100.186 114.494ZM99.4035 110.325C99.1255 110.325 98.8734 110.131 98.8131 109.848C98.7269 109.452 98.6363 109.06 98.5458 108.676C98.4682 108.353 98.6708 108.025 98.9962 107.948C99.3216 107.872 99.6471 108.073 99.7246 108.398C99.8173 108.786 99.9078 109.189 99.9962 109.592C100.067 109.917 99.8604 110.24 99.5328 110.312C99.4897 110.32 99.4466 110.325 99.4035 110.325ZM98.3562 106.215C98.0954 106.215 97.8541 106.045 97.7765 105.782C97.6601 105.394 97.5394 105.01 97.4187 104.642C97.3153 104.325 97.4877 103.982 97.8045 103.879C98.1234 103.773 98.4639 103.946 98.5695 104.265C98.6945 104.642 98.8174 105.036 98.938 105.437C99.0329 105.758 98.8497 106.094 98.5307 106.189C98.4726 106.206 98.4144 106.215 98.3562 106.215ZM96.9188 102.228C96.686 102.228 96.4641 102.092 96.3649 101.866C96.199 101.495 96.0309 101.135 95.8607 100.801C95.7098 100.502 95.8283 100.138 96.1257 99.9868C96.4253 99.836 96.7895 99.9545 96.9403 100.254C97.1214 100.607 97.3002 100.987 97.4726 101.379C97.6062 101.685 97.4683 102.041 97.1623 102.176C97.0826 102.211 97.0007 102.228 96.9188 102.228ZM94.7508 98.6055C94.5806 98.6055 94.4103 98.5343 94.2918 98.3964C94.0461 98.112 93.7789 97.834 93.4966 97.5689C93.2531 97.3383 93.2423 96.9569 93.4707 96.7133C93.7013 96.4698 94.0828 96.459 94.3263 96.6875C94.6388 96.9806 94.9362 97.2887 95.2077 97.6055C95.4275 97.8577 95.3973 98.2413 95.1452 98.4589C95.031 98.558 94.8909 98.6055 94.7508 98.6055ZM91.4881 95.9268C91.3847 95.9268 91.2769 95.9009 91.1799 95.8427C90.8524 95.6488 90.5076 95.4613 90.1541 95.2846C89.8546 95.1337 89.7339 94.7717 89.8848 94.4721C90.0335 94.1726 90.3977 94.0519 90.6972 94.2006C91.0765 94.3902 91.4472 94.5928 91.7984 94.8018C92.0872 94.9721 92.1799 95.3427 92.0096 95.6315C91.8976 95.8212 91.695 95.9268 91.4881 95.9268ZM87.6198 94.2113C87.5573 94.2113 87.4948 94.2006 87.4323 94.1812C87.066 94.0627 86.6845 93.9506 86.3009 93.8471C85.9777 93.7609 85.7859 93.4291 85.8721 93.1058C85.9583 92.7826 86.2902 92.5908 86.6134 92.677C87.0164 92.7847 87.4173 92.9032 87.8052 93.0304C88.1241 93.1317 88.2987 93.4743 88.1952 93.7911C88.1133 94.0476 87.8763 94.2113 87.6198 94.2113ZM83.4865 93.2653C83.4585 93.2653 83.4304 93.2631 83.4024 93.2588C82.687 93.1575 82.2452 93.1338 82.2409 93.1317C81.9068 93.1144 81.6525 92.8278 81.6719 92.4938C81.6892 92.1619 81.9758 91.9055 82.3098 91.9249C82.3292 91.9249 82.799 91.9529 83.5684 92.0606C83.9002 92.1059 84.1308 92.4119 84.0856 92.7438C84.0425 93.0455 83.7839 93.2653 83.4865 93.2653Z" fill="#B8C8DE"/>
<path d="M143.793 67.5582H106.73V38.4179C106.73 35.862 104.657 33.7889 102.097 33.7889C99.5391 33.7889 97.466 35.862 97.466 38.4179V67.5582H40.9567V37.8748C40.9567 35.3168 38.8836 33.2437 36.3234 33.2437C33.7654 33.2437 31.6923 35.3168 31.6923 37.8748V67.5582H1.53906V79.5423H143.793V67.5582Z" fill="#2C4770"/>
<path d="M108.377 158.918V129.778C108.377 127.222 106.302 125.149 103.744 125.149C101.186 125.149 99.1103 127.222 99.1103 129.778V158.918H42.6032V129.233C42.6032 126.677 40.5279 124.604 37.9699 124.604C35.4119 124.604 33.3366 126.677 33.3366 129.233V158.918H3.18555V170.9H145.439V158.918H108.377Z" fill="#2C4770"/>
<path d="M40.9674 124.664C40.9351 124.664 40.9006 124.662 40.864 124.656C40.5364 124.6 40.3144 124.287 40.3705 123.957C40.3748 123.938 40.4545 123.472 40.6571 122.716C40.7433 122.393 41.0752 122.201 41.3984 122.285C41.7217 122.371 41.9135 122.703 41.8273 123.026C41.6398 123.727 41.5644 124.158 41.5644 124.162C41.5126 124.455 41.2583 124.664 40.9674 124.664ZM42.2109 120.602C42.1354 120.602 42.0579 120.589 41.9824 120.559C41.6721 120.432 41.5234 120.078 41.6506 119.768C41.8079 119.384 41.976 119.001 42.1505 118.63C42.2949 118.328 42.6548 118.197 42.9565 118.339C43.2604 118.484 43.3897 118.843 43.2474 119.145C43.0815 119.496 42.922 119.861 42.7712 120.227C42.6764 120.462 42.4501 120.602 42.2109 120.602ZM44.1784 116.852C44.0642 116.852 43.9478 116.82 43.8444 116.751C43.5664 116.566 43.4888 116.191 43.6741 115.913C43.9069 115.561 44.1504 115.219 44.3982 114.891C44.6008 114.626 44.9801 114.574 45.2473 114.777C45.5145 114.979 45.5641 115.359 45.3615 115.626C45.1309 115.93 44.9025 116.251 44.6848 116.581C44.5685 116.755 44.3745 116.852 44.1784 116.852ZM46.9239 113.635C46.758 113.635 46.592 113.568 46.4735 113.434C46.2494 113.186 46.2688 112.803 46.5188 112.581C46.8313 112.299 47.1588 112.027 47.4885 111.777C47.7558 111.575 48.135 111.626 48.3376 111.893C48.5402 112.159 48.4885 112.54 48.2212 112.74C47.9174 112.971 47.6157 113.221 47.3269 113.48C47.2127 113.583 47.0683 113.635 46.9239 113.635ZM50.4474 111.318C50.2168 111.318 49.997 111.187 49.8957 110.962C49.7556 110.659 49.8914 110.299 50.1953 110.161C50.5767 109.988 50.9711 109.831 51.3698 109.693C51.6844 109.583 52.0292 109.749 52.1391 110.064C52.2512 110.381 52.0831 110.725 51.7684 110.835C51.4042 110.962 51.0443 111.107 50.6974 111.264C50.6155 111.301 50.5293 111.318 50.4474 111.318ZM59.9338 110.378C59.8972 110.378 59.8627 110.376 59.8282 110.37C59.436 110.301 59.0438 110.243 58.6624 110.2C58.3305 110.159 58.0934 109.859 58.1322 109.527C58.171 109.195 58.4727 108.958 58.8046 108.997C59.2076 109.044 59.6235 109.105 60.0373 109.176C60.3649 109.234 60.5868 109.549 60.5286 109.876C60.4769 110.172 60.2226 110.378 59.9338 110.378ZM54.5075 110.189C54.2058 110.189 53.945 109.965 53.9062 109.659C53.8653 109.327 54.1002 109.025 54.432 108.984C54.8415 108.932 55.2617 108.898 55.6841 108.879C56.0182 108.863 56.3005 109.12 56.3177 109.454C56.3328 109.788 56.0742 110.07 55.7402 110.088C55.3501 110.105 54.96 110.137 54.5829 110.185C54.557 110.189 54.5312 110.189 54.5075 110.189Z" fill="#B8C8DE"/>
<path d="M34.0481 124.429C33.768 124.416 33.5266 124.209 33.4792 123.923C33.4167 123.554 33.3348 123.175 33.2357 122.794C33.1516 122.47 33.3456 122.141 33.6688 122.054C33.9921 121.97 34.3218 122.164 34.408 122.488C34.5158 122.904 34.6063 123.319 34.6731 123.725C34.7291 124.054 34.505 124.365 34.1753 124.421C34.1322 124.427 34.0891 124.431 34.0481 124.429ZM32.7508 120.41C32.5353 120.399 32.3306 120.274 32.2314 120.063C32.0676 119.716 31.8866 119.365 31.697 119.02C31.5354 118.729 31.641 118.361 31.934 118.199C32.225 118.037 32.5935 118.143 32.7573 118.436C32.9598 118.803 33.1516 119.177 33.3262 119.546C33.4684 119.848 33.3391 120.21 33.0374 120.352C32.9447 120.395 32.8478 120.414 32.7508 120.41ZM30.5527 116.798C30.3781 116.79 30.2079 116.706 30.0936 116.555C29.8631 116.247 29.6174 115.934 29.3631 115.626C29.1519 115.37 29.1885 114.988 29.445 114.775C29.7036 114.561 30.085 114.598 30.2984 114.857C30.5634 115.178 30.822 115.505 31.0634 115.831C31.2638 116.098 31.2099 116.477 30.9427 116.678C30.8242 116.764 30.6863 116.803 30.5527 116.798ZM27.5744 113.814C27.4667 113.809 27.3589 113.775 27.2619 113.71C26.9516 113.499 26.6219 113.299 26.2814 113.115C25.9862 112.958 25.8762 112.592 26.0336 112.296C26.193 112.001 26.5594 111.891 26.8546 112.049C27.2318 112.251 27.5981 112.473 27.9429 112.708C28.2209 112.898 28.292 113.273 28.1024 113.551C27.9817 113.73 27.777 113.822 27.5744 113.814ZM14.1184 111.809C13.8512 111.797 13.6141 111.607 13.5538 111.331C13.4848 111.006 13.6917 110.682 14.0193 110.613C14.0387 110.609 14.4977 110.51 15.2649 110.411C15.5967 110.368 15.9006 110.603 15.9437 110.934C15.9868 111.266 15.7519 111.57 15.42 111.611C14.7067 111.704 14.2779 111.797 14.2736 111.797C14.2218 111.807 14.1701 111.812 14.1184 111.809ZM23.732 112.077C23.6867 112.075 23.6415 112.068 23.5962 112.055C23.2299 111.954 22.8484 111.863 22.4605 111.786C22.133 111.719 21.9196 111.4 21.9864 111.072C22.0511 110.745 22.37 110.534 22.6997 110.598C23.1135 110.682 23.5251 110.779 23.9195 110.889C24.2427 110.978 24.4302 111.312 24.3419 111.633C24.2643 111.911 24.0078 112.09 23.732 112.077ZM18.3358 111.415C18.0168 111.4 17.7604 111.137 17.7582 110.814C17.7561 110.48 18.0255 110.206 18.3595 110.204C18.7733 110.202 19.1892 110.21 19.5922 110.23H19.603C19.937 110.245 20.1956 110.527 20.1805 110.861C20.1654 111.195 19.8809 111.454 19.5469 111.439H19.5383C19.1547 111.422 18.7603 111.413 18.3681 111.415C18.3573 111.415 18.3466 111.415 18.3358 111.415Z" fill="#B8C8DE"/>
<path d="M38.6639 124.059C38.3407 124.059 38.0713 123.802 38.0605 123.475C38.0455 123.087 38.039 122.673 38.0347 122.249C38.0325 121.914 38.3019 121.641 38.6359 121.639C38.9721 121.636 39.2437 121.906 39.2458 122.24C39.2501 122.654 39.2566 123.055 39.2717 123.434C39.2824 123.768 39.0217 124.048 38.6877 124.059C38.679 124.059 38.6726 124.059 38.6639 124.059ZM38.7071 119.824C38.6963 119.824 38.6877 119.824 38.6769 119.822C38.3429 119.807 38.0864 119.522 38.1015 119.191C38.1209 118.788 38.1446 118.376 38.1726 117.969C38.1942 117.637 38.4829 117.385 38.817 117.406C39.151 117.428 39.4031 117.716 39.3794 118.051C39.3536 118.449 39.3299 118.852 39.3105 119.247C39.2954 119.572 39.0282 119.824 38.7071 119.824ZM39.0497 115.602C39.026 115.602 39.0023 115.6 38.9807 115.598C38.6467 115.559 38.4097 115.26 38.4463 114.928C38.4915 114.527 38.5411 114.12 38.5928 113.717C38.6359 113.385 38.9398 113.15 39.2717 113.195C39.6035 113.238 39.8384 113.542 39.7953 113.872C39.7436 114.268 39.6941 114.669 39.6488 115.064C39.6143 115.374 39.3536 115.602 39.0497 115.602ZM39.651 111.409C39.6165 111.409 39.5798 111.404 39.5454 111.4C39.2156 111.342 38.9958 111.029 39.0519 110.7C39.1079 110.387 39.1639 110.073 39.2221 109.764C39.2393 109.674 39.2566 109.581 39.276 109.491C39.3428 109.163 39.6617 108.954 39.9893 109.019C40.3169 109.086 40.5281 109.407 40.4612 109.734C40.444 109.818 40.4289 109.902 40.4117 109.989C40.3556 110.29 40.2996 110.601 40.2457 110.907C40.194 111.202 39.9397 111.409 39.651 111.409ZM40.7349 107.325C40.6617 107.325 40.5862 107.31 40.513 107.282C40.2026 107.157 40.0496 106.806 40.1725 106.495C40.3255 106.112 40.4936 105.728 40.6724 105.349C40.8168 105.047 41.1789 104.92 41.4806 105.062C41.7823 105.207 41.9116 105.569 41.7672 105.87C41.5991 106.224 41.4418 106.584 41.2996 106.941C41.2047 107.178 40.9763 107.325 40.7349 107.325ZM42.7262 103.592C42.6098 103.592 42.4913 103.56 42.3878 103.489C42.112 103.301 42.0387 102.924 42.2262 102.649C42.4546 102.31 42.7003 101.97 42.9525 101.638C43.155 101.373 43.5343 101.321 43.8015 101.521C44.0666 101.724 44.1183 102.103 43.9158 102.371C43.6766 102.685 43.446 103.006 43.2283 103.327C43.1119 103.5 42.9201 103.592 42.7262 103.592ZM45.4157 100.321C45.2648 100.321 45.1118 100.265 44.9933 100.149C44.7541 99.9159 44.7498 99.5323 44.9847 99.2931C45.2713 99 45.5708 98.7091 45.8725 98.429C46.1182 98.2005 46.5018 98.2135 46.7281 98.4591C46.9565 98.7048 46.9414 99.0862 46.6979 99.3147C46.4091 99.5819 46.1225 99.8599 45.8488 100.14C45.7303 100.261 45.573 100.321 45.4157 100.321ZM48.6223 97.5476C48.4349 97.5476 48.2495 97.4614 48.131 97.2976C47.9349 97.0282 47.9952 96.6489 48.2646 96.4528C48.9003 95.9916 49.299 95.7503 49.3163 95.7395C49.6029 95.5692 49.9757 95.6619 50.1481 95.9485C50.3184 96.2351 50.2257 96.6058 49.9391 96.7782C49.9369 96.7804 49.5641 97.0045 48.9779 97.4312C48.8702 97.5088 48.7452 97.5476 48.6223 97.5476Z" fill="#B8C8DE"/>
<path d="M34.9743 118.158C34.6683 118.158 34.4054 117.928 34.3731 117.615C34.3343 117.24 34.2869 116.837 34.2373 116.421C34.1964 116.09 34.4313 115.788 34.7632 115.747C35.095 115.704 35.3967 115.941 35.4377 116.273C35.4916 116.697 35.5368 117.107 35.5778 117.49C35.6122 117.822 35.3709 118.12 35.039 118.154C35.0174 118.156 34.9959 118.158 34.9743 118.158ZM34.4119 113.95C34.1188 113.95 33.8623 113.738 33.8149 113.441C33.7503 113.042 33.6835 112.644 33.6145 112.254C33.5585 111.924 33.7783 111.611 34.108 111.553C34.4377 111.495 34.7502 111.715 34.8084 112.045C34.8774 112.441 34.9463 112.846 35.011 113.249C35.0627 113.579 34.8386 113.889 34.5067 113.943C34.4744 113.947 34.4421 113.95 34.4119 113.95ZM33.6296 109.78C33.3516 109.78 33.0995 109.588 33.0391 109.303C32.9529 108.909 32.8624 108.515 32.7719 108.133C32.6943 107.808 32.8969 107.48 33.2223 107.405C33.5477 107.327 33.8731 107.528 33.9507 107.853C34.0434 108.243 34.1339 108.644 34.2222 109.047C34.2934 109.372 34.0865 109.696 33.7589 109.767C33.7158 109.775 33.6727 109.78 33.6296 109.78ZM32.5823 105.67C32.3215 105.67 32.0801 105.502 32.0026 105.239C31.8862 104.849 31.7655 104.465 31.6448 104.099C31.5414 103.78 31.7138 103.439 32.0306 103.334C32.3495 103.228 32.69 103.403 32.7956 103.72C32.9206 104.097 33.0434 104.491 33.1641 104.892C33.2589 105.213 33.0758 105.549 32.7568 105.646C32.6986 105.661 32.6404 105.67 32.5823 105.67ZM31.1449 101.683C30.9121 101.683 30.6901 101.55 30.591 101.321C30.4251 100.95 30.257 100.591 30.0867 100.257C29.9359 99.9591 30.0544 99.5949 30.3518 99.4419C30.6514 99.2911 31.0156 99.4096 31.1664 99.7091C31.3474 100.063 31.5263 100.442 31.6987 100.834C31.8323 101.14 31.6944 101.498 31.3884 101.631C31.3086 101.666 31.2267 101.683 31.1449 101.683ZM28.9769 98.0605C28.8066 98.0605 28.6364 97.9894 28.5179 97.8515C28.2722 97.567 28.005 97.289 27.7227 97.024C27.4791 96.7955 27.4684 96.4119 27.6968 96.1684C27.9274 95.9249 28.3088 95.9141 28.5524 96.1426C28.8648 96.4356 29.1622 96.746 29.4338 97.0606C29.6536 97.3149 29.6234 97.6963 29.3713 97.914C29.257 98.0131 29.117 98.0605 28.9769 98.0605ZM25.7142 95.384C25.6107 95.384 25.503 95.356 25.406 95.2978C25.0784 95.1038 24.7336 94.9163 24.3802 94.7396C24.0807 94.5909 23.96 94.2267 24.1108 93.9272C24.2595 93.6276 24.6237 93.507 24.9233 93.6578C25.3026 93.8453 25.6732 94.0479 26.0245 94.2569C26.3133 94.4272 26.4059 94.8 26.2357 95.0866C26.1236 95.2762 25.9211 95.384 25.7142 95.384ZM21.8459 93.6664C21.7834 93.6664 21.7209 93.6578 21.6584 93.6363C21.2899 93.5177 20.9106 93.4057 20.527 93.3022C20.2038 93.216 20.012 92.8841 20.0982 92.5609C20.1844 92.2398 20.5162 92.048 20.8395 92.1342C21.2425 92.2419 21.6433 92.3605 22.0312 92.4855C22.3502 92.5889 22.5247 92.9294 22.4213 93.2483C22.3394 93.5026 22.1023 93.6664 21.8459 93.6664ZM17.7125 92.7204C17.6845 92.7204 17.6565 92.7182 17.6285 92.7139C16.913 92.6148 16.4713 92.5889 16.4669 92.5889C16.1329 92.5695 15.8786 92.2829 15.898 91.951C15.9153 91.617 16.2019 91.3605 16.5359 91.3799C16.5553 91.3799 17.0251 91.408 17.7944 91.5157C18.1263 91.561 18.3569 91.867 18.3116 92.1988C18.2685 92.5006 18.0099 92.7204 17.7125 92.7204Z" fill="#B8C8DE"/>
<path d="M60.4127 148.029C56.163 147.984 54.982 150.3 54.6545 151.561C54.3808 149.777 53.8161 147.813 52.7774 145.822C58.1133 145.458 57.9797 141.525 57.9797 141.525C54.1179 141.484 52.7904 143.393 52.3356 144.689C52.1137 139.978 48.3294 139.721 48.3294 139.721C48.0988 144.783 51.0771 145.654 52.0318 145.803C52.0253 145.867 52.0382 145.936 52.0706 145.999C52.5684 146.93 52.9541 147.852 53.2537 148.755C49.575 145.07 46.5278 147.762 46.5278 147.762C49.963 151.468 52.6697 149.981 53.4541 149.404C54.2041 151.99 54.2536 154.356 54.1092 156.091C53.8851 158.78 53.1653 160.582 53.1546 160.608C53.0813 160.791 53.1675 160.996 53.3507 161.071C53.3938 161.088 53.439 161.097 53.4843 161.097C53.6243 161.097 53.7558 161.013 53.8118 160.875C53.8442 160.8 54.5769 158.972 54.8139 156.177C54.9044 155.102 54.9238 153.796 54.76 152.348C60.5549 152.179 60.4127 148.029 60.4127 148.029Z" fill="#3D8375"/>
<path d="M95.0094 148.163C90.7597 148.115 89.5787 150.434 89.2511 151.695C88.9753 149.91 88.4128 147.947 87.3741 145.956C92.71 145.592 92.5763 141.659 92.5763 141.659C88.7145 141.618 87.387 143.527 86.9302 144.822C86.7104 140.111 82.9261 139.855 82.9261 139.855C82.6955 144.915 85.6738 145.786 86.6285 145.936C86.622 146.001 86.6349 146.07 86.6673 146.133C87.1629 147.061 87.5508 147.986 87.8482 148.889C84.1696 145.204 81.1245 147.895 81.1245 147.895C84.5596 151.602 87.2642 150.115 88.0508 149.538C88.7986 152.124 88.8481 154.49 88.7038 156.225C88.4818 158.912 87.762 160.716 87.7512 160.742C87.678 160.923 87.7642 161.129 87.9452 161.205C87.9904 161.222 88.0357 161.231 88.0788 161.231C88.2189 161.231 88.3525 161.147 88.4085 161.009C88.4387 160.933 89.1736 159.106 89.4085 156.311C89.499 155.235 89.5184 153.929 89.3567 152.481C95.1516 152.313 95.0094 148.163 95.0094 148.163Z" fill="#3D8375"/>
<path d="M64.5848 147.618C68.8366 147.572 70.0154 149.889 70.343 151.15C70.6189 149.365 71.1813 147.402 72.22 145.411C66.8863 145.047 67.0178 141.114 67.0178 141.114C70.8818 141.073 72.2071 142.982 72.664 144.277C72.8838 139.569 76.6702 139.31 76.6702 139.31C76.8986 144.372 73.9204 145.243 72.9678 145.392C72.9722 145.456 72.9614 145.525 72.9269 145.588C72.4312 146.519 72.0455 147.441 71.7459 148.344C75.4246 144.659 78.4696 147.35 78.4696 147.35C75.0367 151.057 72.33 149.57 71.5434 148.993C70.7956 151.579 70.746 153.945 70.8904 155.68C71.1124 158.369 71.8321 160.171 71.8429 160.199C71.9162 160.38 71.83 160.587 71.649 160.66C71.6059 160.677 71.5606 160.686 71.5154 160.686C71.3753 160.686 71.2417 160.602 71.1856 160.466C71.1555 160.388 70.4206 158.561 70.1857 155.766C70.0952 154.691 70.0758 153.385 70.2374 151.936C64.4447 151.768 64.5848 147.618 64.5848 147.618Z" fill="#3D8375"/>
<path d="M32.0714 148.574C27.8195 148.527 26.6407 150.846 26.3131 152.106C26.0373 150.322 25.4748 148.359 24.4361 146.367C29.7698 146.001 29.6384 142.07 29.6384 142.07C25.7744 142.029 24.449 143.939 23.9922 145.234C23.7724 140.523 19.986 140.267 19.986 140.267C19.7575 145.327 22.7336 146.197 23.6883 146.346C23.684 146.413 23.6948 146.482 23.7293 146.544C24.2249 147.473 24.6107 148.398 24.9102 149.3C21.2316 145.615 18.1865 148.305 18.1865 148.305C21.6195 152.014 24.3262 150.527 25.1128 149.949C25.8606 152.533 25.9102 154.899 25.7658 156.636C25.5438 159.324 24.824 161.127 24.8132 161.153C24.7378 161.334 24.8262 161.541 25.0072 161.614C25.0503 161.634 25.0956 161.642 25.1408 161.642C25.2809 161.642 25.4145 161.558 25.4705 161.42C25.5007 161.345 26.2356 159.517 26.4705 156.72C26.561 155.647 26.5804 154.341 26.4187 152.893C32.2115 152.725 32.0714 148.574 32.0714 148.574Z" fill="#3D8375"/>
<path d="M1.6468 148.029C5.89652 147.984 7.07747 150.3 7.40504 151.561C7.68088 149.777 8.24334 147.813 9.28207 145.822C3.94621 145.458 4.07983 141.525 4.07983 141.525C7.94164 141.484 9.26914 143.393 9.72601 144.689C9.94582 139.978 13.7301 139.721 13.7301 139.721C13.9606 144.783 10.9824 145.654 10.0277 145.803C10.0342 145.867 10.0212 145.936 9.98892 145.999C9.49326 146.93 9.10536 147.852 8.80796 148.755C12.4866 145.07 15.5317 147.762 15.5317 147.762C12.0965 151.468 9.39198 149.981 8.60539 149.404C7.85759 151.99 7.80803 154.356 7.95242 156.091C8.17438 158.78 8.89416 160.582 8.90494 160.608C8.97821 160.791 8.89201 160.996 8.71099 161.071C8.66573 161.088 8.62048 161.097 8.57737 161.097C8.4373 161.097 8.30369 161.013 8.24766 160.875C8.21748 160.8 7.48262 158.972 7.24772 156.177C7.15721 155.102 7.13781 153.796 7.29944 152.348C1.50456 152.179 1.6468 148.029 1.6468 148.029Z" fill="#3D8375"/>
<mask id="mask1_1729_4086" style="mask-type:luminance" maskUnits="userSpaceOnUse" x="182" y="21" width="52" height="72">
<path d="M182.557 21.729H234V92.3451H182.557V21.729Z" fill="white"/>
</mask>
<g mask="url(#mask1_1729_4086)">
<path d="M185.572 24.0995C185.572 24.0995 205.737 14.1907 217.423 35.3703C229.112 56.5521 217.363 84.4296 233.95 83.3823C233.95 83.3823 231.453 93.4592 217.423 91.7761C203.396 90.0909 190.408 69.7323 189.257 55.7742C188.104 41.8182 186.734 31.1055 182.947 29.4138L185.572 24.0995Z" fill="#040404"/>
</g>
<path d="M179.17 14.04C171.978 14.04 168.384 16.9127 168.384 24.8173C168.384 32.722 173.418 34.1573 177.013 34.1573C180.607 34.1573 184.202 33.4396 186.359 27.6922C188.516 21.9425 185.639 14.04 179.17 14.04Z" fill="#040404"/>
<path d="M173.991 32.1896C179.163 33.0581 181.228 26.9529 181.228 26.9529C181.228 26.9529 184.051 25.8128 184.557 24.3194L184.562 24.3151C184.712 23.8647 184.654 23.382 184.243 22.8863C182.46 20.7507 181.318 23.2484 181.318 23.2484C180.473 23.2656 176.187 21.0653 174.653 17.8823C174.653 17.8823 173.429 22.0502 170.489 22.535C170.328 22.8712 168.819 31.3189 173.991 32.1896Z" fill="#FFA59D"/>
<path d="M181.228 26.9531C181.228 26.9531 179.333 32.0649 181.26 39.7799L171.97 38.6506C171.97 38.6506 174.064 35.1185 173.024 30.0046L181.228 26.9531Z" fill="#FFA59D"/>
<path d="M197.808 83.0159H151.54C151.63 79.7381 151.682 77.5378 151.682 77.5378C151.682 77.5378 151.135 45.1714 151.398 44.1628C151.398 44.1607 151.4 44.1564 151.4 44.1542C151.723 43.8094 152.042 43.5013 152.357 43.234C154.35 41.538 157.414 40.0575 161.091 38.9218C161.755 38.7192 162.438 38.5253 163.138 38.3443C164.608 37.9628 166.157 37.6353 167.754 37.3659C168.142 37.3012 168.534 37.2409 168.927 37.1827C172.773 36.6202 176.881 36.4026 180.917 36.631C182.745 36.7366 184.557 36.9306 186.326 37.2236C186.964 37.3314 187.598 37.4499 188.223 37.5814C188.259 37.59 188.298 37.5986 188.337 37.6072C190.729 38.1201 193.013 38.8335 195.112 39.7666L197.808 83.0159Z" fill="#C55639"/>
<path d="M218.533 175.2H188.298C187.486 170.905 186.684 166.662 185.906 162.532C184.492 155.035 183.156 147.911 181.96 141.527C181.053 136.681 180.226 132.261 179.51 128.429C177.76 119.059 176.672 113.202 176.672 113.202L213.376 146.842L218.533 175.2Z" fill="#FFA59D"/>
<path d="M184.393 135.429L181.96 141.527L172.644 164.905L168.541 175.2H135.864L139.752 155.188L140.56 151.027L174 120.524L179.51 128.429L184.393 135.429Z" fill="#FFA59D"/>
<path d="M197.81 83.0161L213.376 146.84C213.376 146.84 182.464 178.749 139.28 158.08L151.54 83.0161H197.81Z" fill="#2C4770"/>
<path d="M195.276 81.7318L193.277 83.0162L175.454 94.4638L151.54 83.0162L158.44 60.647L164.528 45.9734L163.138 38.3446C164.608 37.9632 166.158 37.6356 167.754 37.3662C168.142 37.3016 168.535 37.2412 168.927 37.183L170.162 44.0447L180.027 45.0834L180.917 36.6313C182.745 36.7369 184.557 36.9309 186.327 37.224L184.71 45.6415C184.71 45.6415 194.964 79.9195 195.276 81.7318Z" fill="#2C4770"/>
<path d="M125.736 43.8353L123.837 39.0598C123.262 37.8099 121.861 36.3811 121.305 36.0212L116.667 33.9071C116.249 33.7153 115.775 34.0709 115.862 34.5256C116.023 35.379 116.663 36.7022 118.807 38.1374L110.793 36.7906C110.793 36.7906 106.364 39.5253 108.856 42.704L113.698 44.0896L109.202 45.5658C108.75 45.7145 108.649 46.305 109.021 46.6003C109.672 47.1175 110.929 47.639 113.228 47.2166C113.228 47.2166 116.838 51.0504 120.372 49.766L125.736 43.8353Z" fill="#FFA59D"/>
<path d="M117.622 51.2723C117.622 51.2723 124.557 78.7188 135.677 79.7984C142.327 80.4428 146.321 77.7792 148.456 75.5336C149.34 74.6027 153.54 74.3742 153.844 73.8527C153.844 73.8527 155.839 57.3236 151.327 44.2016C149.555 45.1628 147.915 46.3545 146.448 47.7402C145.411 48.7186 144.133 49.8866 142.795 51.0245C139.584 53.7549 136.02 56.3021 134.595 55.591C131.591 54.0889 126.542 41.6307 126.417 41.3979C126.417 41.4001 126.417 41.4023 126.419 41.4044C126.572 41.8677 117.622 51.2723 117.622 51.2723Z" fill="#C55639"/>
<path d="M119.572 54.7677C119.62 54.7677 119.665 54.7504 119.7 54.7138L127.712 46.2661C127.779 46.1971 127.777 46.0872 127.706 46.0204C127.637 45.9536 127.525 45.9579 127.46 46.0269L119.447 54.4746C119.381 54.5436 119.383 54.6535 119.454 54.7203C119.486 54.7526 119.529 54.7677 119.572 54.7677Z" fill="black"/>
<path d="M141.614 64.4546H166.073C166.317 64.4546 166.558 64.4783 166.797 64.5257C167.034 64.5731 167.267 64.6421 167.491 64.7369C167.715 64.8296 167.929 64.9438 168.131 65.0774C168.334 65.2132 168.521 65.3662 168.694 65.5386C168.864 65.711 169.019 65.8963 169.153 66.0989C169.289 66.3015 169.403 66.5148 169.495 66.7389C169.588 66.963 169.659 67.1958 169.707 67.4328C169.754 67.6721 169.778 67.9134 169.778 68.1569V101.756C169.778 101.997 169.754 102.239 169.707 102.478C169.659 102.715 169.588 102.948 169.495 103.172C169.403 103.396 169.289 103.609 169.153 103.812C169.019 104.014 168.864 104.2 168.694 104.372C168.521 104.545 168.334 104.698 168.131 104.833C167.929 104.967 167.715 105.081 167.491 105.176C167.267 105.269 167.034 105.338 166.797 105.385C166.558 105.433 166.317 105.456 166.073 105.456H141.614C141.37 105.456 141.131 105.433 140.892 105.385C140.653 105.338 140.422 105.269 140.196 105.176C139.972 105.081 139.758 104.967 139.556 104.833C139.353 104.698 139.168 104.545 138.995 104.372C138.823 104.2 138.67 104.014 138.534 103.812C138.398 103.609 138.284 103.396 138.191 103.172C138.099 102.948 138.028 102.715 137.98 102.478C137.933 102.239 137.909 101.997 137.909 101.756V68.1569C137.909 67.9134 137.933 67.6721 137.98 67.4328C138.028 67.1958 138.099 66.963 138.191 66.7389C138.284 66.5148 138.398 66.3015 138.534 66.0989C138.67 65.8963 138.823 65.711 138.995 65.5386C139.168 65.3662 139.353 65.2132 139.556 65.0774C139.758 64.9438 139.972 64.8296 140.196 64.7369C140.422 64.6421 140.653 64.5731 140.892 64.5257C141.131 64.4783 141.37 64.4546 141.614 64.4546Z" fill="#B8C8DE"/>
<path d="M156.889 87.1712C156.268 88.4061 154.988 89.2551 153.51 89.2551C151.423 89.2551 149.734 87.5656 149.734 85.4817C149.734 83.54 151.197 81.9431 153.083 81.7319C152.829 82.2405 152.684 82.8138 152.684 83.4193C152.684 85.5032 154.376 87.1949 156.462 87.1949C156.606 87.1949 156.749 87.1863 156.889 87.1712Z" fill="#2C4770"/>
<path d="M181.059 73.4131C180.611 73.4174 162.177 78.3158 162.177 78.3158L152.624 77.3568C152.624 77.3568 152.1 80.0549 157.328 80.6497C157.328 80.6497 152.434 87.3712 152.594 87.4488C152.751 87.5264 152.51 89.7073 155.665 88.9444C155.665 88.9444 155.425 91.9744 159.149 90.6426C159.149 90.6426 159.809 93.804 162.207 92.1317C162.207 92.1317 165.459 92.4743 165.873 90.8451L168.97 87.8863L185.195 85.7959L181.059 73.4131Z" fill="#FFA59D"/>
<path d="M218.533 71.7796C218.266 88.2527 187.436 93.998 187.436 93.998L180.027 71.0728L196.701 65.2197L189.247 51.9404L195.113 39.7666C196.065 39.6222 218.799 55.3087 218.533 71.7796Z" fill="#C55639"/>
<path d="M179.945 71.4433C179.756 71.4627 179.57 71.3507 179.504 71.161C179.424 70.939 179.54 70.6977 179.762 70.6179L201.47 62.946C201.69 62.8663 201.935 62.9827 202.013 63.2046C202.091 63.4266 201.974 63.6701 201.752 63.7477L180.047 71.4218C180.014 71.4325 179.98 71.4412 179.945 71.4433Z" fill="#040404"/>
<path d="M187.492 94.4634C187.313 94.4634 187.147 94.3513 187.087 94.1746L184.283 85.9337C184.208 85.7096 184.327 85.4683 184.551 85.3928C184.773 85.3174 185.014 85.4359 185.089 85.6579L187.764 93.5151L198.726 90.3171C198.953 90.2503 199.19 90.3796 199.254 90.6059C199.321 90.8321 199.192 91.0692 198.966 91.1338L187.611 94.4461C187.572 94.4569 187.531 94.4634 187.492 94.4634Z" fill="#040404"/>
</svg>
